<svg width="28" height="28" viewBox="0 0 28 28" fill="none" xmlns="http://www.w3.org/2000/svg">
<path d="M13.9994 0.666687C11.3623 0.666687 8.78441 1.44867 6.59175 2.91376C4.3991 4.37884 2.69013 6.46123 1.68096 8.89757C0.671793 11.3339 0.407748 14.0148 0.922218 16.6012C1.43669 19.1876 2.70656 21.5634 4.57126 23.4281C6.43597 25.2928 8.81174 26.5627 11.3982 27.0772C13.9846 27.5916 16.6655 27.3276 19.1018 26.3184C21.5382 25.3092 23.6205 23.6003 25.0856 21.4076C26.5507 19.215 27.3327 16.6371 27.3327 14C27.3327 12.2491 26.9878 10.5152 26.3177 8.89757C25.6477 7.2799 24.6656 5.81004 23.4274 4.57193C22.1893 3.33382 20.7195 2.35169 19.1018 1.68163C17.4841 1.01156 15.7503 0.666687 13.9994 0.666687ZM13.9994 24.6667C11.1704 24.6667 8.45727 23.5429 6.45688 21.5425C4.45649 19.5421 3.33269 16.829 3.33269 14C3.32974 11.6311 4.12338 9.33008 5.58602 7.46669L20.5327 22.4134C18.6693 23.876 16.3682 24.6696 13.9994 24.6667ZM22.4127 20.5334L7.46602 5.58669C9.32942 4.12404 11.6305 3.33041 13.9994 3.33335C16.8283 3.33335 19.5414 4.45716 21.5418 6.45755C23.5422 8.45794 24.666 11.171 24.666 14C24.669 16.3689 23.8753 18.67 22.4127 20.5334Z" fill="#FFE8E8"/>
</svg>
