<svg width="28" height="28" viewBox="0 0 28 28" fill="none" xmlns="http://www.w3.org/2000/svg">
<path d="M17.626 9.72002L11.906 15.4534L9.70602 13.2534C9.58649 13.1138 9.4394 13.0004 9.27398 12.9204C9.10856 12.8404 8.92838 12.7954 8.74476 12.7883C8.56113 12.7812 8.37802 12.8121 8.20692 12.8792C8.03582 12.9462 7.88043 13.0479 7.75049 13.1778C7.62055 13.3078 7.51887 13.4632 7.45184 13.6343C7.38481 13.8054 7.35386 13.9885 7.36096 14.1721C7.36805 14.3557 7.41302 14.5359 7.49305 14.7013C7.57309 14.8667 7.68645 15.0138 7.82602 15.1334L10.9594 18.28C11.0839 18.4036 11.2317 18.5014 11.3941 18.5677C11.5566 18.6341 11.7305 18.6677 11.906 18.6667C12.2558 18.6652 12.591 18.5263 12.8394 18.28L19.506 11.6134C19.631 11.4894 19.7302 11.3419 19.7979 11.1795C19.8656 11.017 19.9004 10.8427 19.9004 10.6667C19.9004 10.4907 19.8656 10.3164 19.7979 10.1539C19.7302 9.99144 19.631 9.84397 19.506 9.72002C19.2562 9.47169 18.9183 9.3323 18.566 9.3323C18.2138 9.3323 17.8758 9.47169 17.626 9.72002ZM13.9994 0.666687C11.3623 0.666687 8.78441 1.44867 6.59175 2.91376C4.3991 4.37884 2.69013 6.46123 1.68096 8.89757C0.671793 11.3339 0.407748 14.0148 0.922218 16.6012C1.43669 19.1876 2.70656 21.5634 4.57126 23.4281C6.43597 25.2928 8.81174 26.5627 11.3982 27.0772C13.9846 27.5916 16.6655 27.3276 19.1018 26.3184C21.5382 25.3092 23.6205 23.6003 25.0856 21.4076C26.5507 19.215 27.3327 16.6371 27.3327 14C27.3327 12.2491 26.9878 10.5152 26.3177 8.89757C25.6477 7.2799 24.6656 5.81004 23.4274 4.57193C22.1893 3.33382 20.7195 2.35169 19.1018 1.68163C17.4841 1.01156 15.7503 0.666687 13.9994 0.666687ZM13.9994 24.6667C11.8897 24.6667 9.8274 24.0411 8.07327 22.869C6.31915 21.697 4.95198 20.0311 4.14464 18.082C3.33731 16.1329 3.12607 13.9882 3.53765 11.9191C3.94922 9.84993 4.96512 7.94931 6.45688 6.45755C7.94864 4.96579 9.84926 3.94989 11.9184 3.53831C13.9875 3.12674 16.1322 3.33797 18.0813 4.14531C20.0304 4.95264 21.6963 6.31981 22.8684 8.07394C24.0404 9.82806 24.666 11.8904 24.666 14C24.666 16.829 23.5422 19.5421 21.5418 21.5425C19.5414 23.5429 16.8283 24.6667 13.9994 24.6667Z" fill="#F4FFF8"/>
</svg>
