<svg id="Layer_1" data-name="Layer 1" xmlns="http://www.w3.org/2000/svg" viewBox="0 0 436 702"><defs><style>.cls-1{fill:#fd3468;}.cls-2{fill:#cec0ef;}.cls-3{fill:#c8beec;}</style></defs><path class="cls-1" d="M23.81,685.45H165.18c0-136.42,110.59-247,247-247V297.06C197.69,297.06,23.81,471,23.81,685.45Z"/><path class="cls-1" d="M167.67,86.3a30.5,30.5,0,1,0,30.5,30.5A30.53,30.53,0,0,0,167.67,86.3Zm0,43.8A13.3,13.3,0,1,1,181,116.8,13.32,13.32,0,0,1,167.67,130.1Z"/><path class="cls-2" d="M266.47,27.47a17.4,17.4,0,0,1-2.45,8.6,56.68,56.68,0,0,1-8.85,11.75,124.8,124.8,0,0,1-10.95,10.25c-.69.58-1.14.67-1.88,0-6.72-5.68-13.1-11.69-18-19-2.1-3.11-3.88-6.39-4.21-10.23C219.35,20,226.67,14.4,235,17.33a15.52,15.52,0,0,1,7.55,5.75c.63.86.83.65,1.36,0a15.18,15.18,0,0,1,9.77-6.27C260.81,15.57,266.22,20.14,266.47,27.47Z"/><circle class="cls-3" cx="193.68" cy="238.82" r="47.7"/></svg>