<svg id="Layer_1" data-name="Layer 1" xmlns="http://www.w3.org/2000/svg" viewBox="0 0 436 702"><defs><style>.cls-1{fill:#e0e8f0;}.cls-2{fill:#fd3468;}.cls-3{fill:#cec0ef;}</style></defs><path class="cls-1" d="M23.81,685.45H165.18c0-136.42,110.59-247,247-247V297.06C197.69,297.06,23.81,471,23.81,685.45Z"/><path class="cls-2" d="M228.08,105.13A32.86,32.86,0,1,0,260.94,138,32.9,32.9,0,0,0,228.08,105.13Zm0,47.18A14.33,14.33,0,1,1,242.41,138,14.33,14.33,0,0,1,228.08,152.31Z"/><path class="cls-3" d="M334.51,41.76A18.77,18.77,0,0,1,331.87,51a61.37,61.37,0,0,1-9.54,12.67,132.18,132.18,0,0,1-11.79,11c-.75.63-1.23.73-2,0-7.24-6.11-14.11-12.58-19.43-20.5-2.26-3.35-4.18-6.89-4.53-11-.8-9.48,7.09-15.56,16.08-12.4A16.7,16.7,0,0,1,308.77,37c.67.93.9.7,1.47-.05a16.26,16.26,0,0,1,10.52-6.75C328.41,28.94,334.24,33.86,334.51,41.76Z"/><path class="cls-2" d="M153.72,217.49a57.76,57.76,0,1,0,57.75,57.76A57.82,57.82,0,0,0,153.72,217.49Zm0,82.94a25.19,25.19,0,1,1,25.18-25.18A25.21,25.21,0,0,1,153.72,300.43Z"/></svg>