<svg width="57" height="37" viewBox="0 0 57 37" fill="none" xmlns="http://www.w3.org/2000/svg">
<path d="M56.9965 17.1371C56.9965 17.1116 56.9751 17.086 56.9309 17.068L55.3325 16.3562L56.8853 15.7087C56.9323 15.6894 56.9544 15.6624 56.9544 15.6361C56.9516 14.5825 56.9493 13.5289 56.9475 12.4752C56.9475 12.4497 56.9261 12.4241 56.8784 12.4061L55.1929 11.655L56.8597 10.9604C56.9067 10.9404 56.9288 10.9148 56.9288 10.8913C56.9288 9.83817 56.9268 8.78454 56.9226 7.73045C56.9226 7.70488 56.9005 7.67931 56.8535 7.66134L39.7512 0.0293C39.6448 -0.00976667 39.528 -0.00976667 39.4216 0.0293L33.6727 2.42312H33.6692L27.2216 5.11272L0.0692952 16.4281C0.00571794 16.4544 -0.0122496 16.4917 0.00779112 16.5255L0.000189484 16.5C0.000189484 16.764 0.000189484 17.0272 0.000189484 17.2905C0.000189484 17.5538 0.000189484 17.8178 0.000189484 18.0811C0.000189484 18.1758 0.000189484 18.3029 0.000189484 18.3969C0.000189484 18.4446 0.000189484 18.5075 0.000189484 18.5552C0.000189484 18.6498 0.000189484 18.7763 0.000189484 18.871C0.000189484 18.9657 0.000189484 19.0921 0.000189484 19.1875V19.3485C0.000189484 19.4432 0.000189484 19.569 0.000189484 19.6643C0.000189484 19.6892 0.0216123 19.7148 0.0651489 19.7334L1.75202 20.4846L0.0914091 21.1777C0.0278318 21.204 0.00986429 21.2413 0.030596 21.2752L0.0195391 21.2496C0.0195391 21.5136 0.0195391 21.7771 0.0195391 22.0402V22.8307C0.0195391 22.9254 0.0195391 23.0519 0.0195391 23.1466V23.3041C0.0195391 23.3995 0.0195391 23.5259 0.0195391 23.6206C0.0195391 23.7153 0.0195391 23.8425 0.0195391 23.9364V24.0947C0.0195391 24.1894 0.0195391 24.3158 0.0195391 24.4112C0.0195391 24.4361 0.0416529 24.461 0.0886449 24.4803L1.68775 25.1935L0.138401 25.8403C0.0768969 25.8666 0.0596204 25.9032 0.0775879 25.9357L0.0692952 25.9136C0.0692952 26.1771 0.0692952 26.4404 0.0692952 26.7034C0.0692952 26.9667 0.0692952 27.2307 0.0692952 27.494C0.0692952 27.5887 0.0692952 27.7151 0.0692952 27.8098C0.0692952 27.8575 0.0692952 27.9204 0.0692952 27.9681V28.2839C0.0692952 28.3786 0.0692952 28.505 0.0692952 28.6004C0.0692952 28.6474 0.0692952 28.7103 0.0692952 28.7586C0.0692952 28.8533 0.0692952 28.9798 0.0692952 29.0744C0.0692952 29.1 0.090718 29.1249 0.134255 29.1436L17.2504 36.7701C17.3574 36.8098 17.4751 36.8098 17.5821 36.7701L23.3061 34.3838V34.399L24.4975 33.9029L24.5666 33.8738L29.2658 31.9188L30.3217 31.4793V31.4641L44.1823 25.6855V25.6903L45.3736 25.1942L45.4428 25.1651L50.1385 23.2101L51.1951 22.7699V22.7658L56.9309 20.374C56.9786 20.3547 57 20.3284 57 20.3015L56.9965 17.1371Z" fill="#31927E"/>
<path d="M30.3184 28.3011V31.4641L44.1824 25.6854V22.5225L30.3184 28.3011Z" fill="#27806D"/>
<path d="M56.9785 17.1777L56.926 17.2109L51.1951 19.5992V22.7636L56.9308 20.3718C56.9785 20.3525 57 20.3262 57 20.2992L56.9965 17.137L56.9841 17.1639L56.9785 17.1777Z" fill="#27806D"/>
<path d="M17.5766 33.612C17.4695 33.651 17.352 33.651 17.2449 33.612L0.131531 25.9827L0.082466 25.9495L0.0762465 25.935L0.0693359 25.9136C0.0693359 26.1771 0.0693359 26.4404 0.0693359 26.7035C0.0693359 26.9667 0.0693359 27.2307 0.0693359 27.494C0.0693359 27.5887 0.0693359 27.7152 0.0693359 27.8098C0.0693359 27.8575 0.0693359 27.9204 0.0693359 27.9681V28.2839C0.0693359 28.3786 0.0693359 28.505 0.0693359 28.6004C0.0693359 28.6474 0.0693359 28.7103 0.0693359 28.7587C0.0693359 28.8533 0.0693359 28.9798 0.0693359 29.0745C0.0693359 29.1 0.0907587 29.1249 0.134295 29.1436L17.2504 36.7701C17.3574 36.8098 17.4751 36.8098 17.5821 36.7701L23.3061 34.3839V31.2237L17.5766 33.612Z" fill="#27806D"/>
<path d="M56.9322 12.5138L56.879 12.5477L51.1951 14.9173V18.0803L55.3324 16.3561L56.8852 15.7086C56.9322 15.6892 56.9543 15.6623 56.9543 15.636C56.9516 14.5824 56.9493 13.5287 56.9474 12.4751L56.935 12.502L56.9322 12.5138Z" fill="#27806D"/>
<path d="M30.3184 26.7821L44.1824 21.0028V17.8398L30.3184 23.6178V26.7821Z" fill="#27806D"/>
<path d="M17.5302 28.9487C17.4231 28.9878 17.3056 28.9878 17.1985 28.9487L0.0851817 21.3194L0.0361166 21.2835L0.0305882 21.2724L0.0195312 21.2468C0.0195312 21.5108 0.0195312 21.7743 0.0195312 22.0374V22.828C0.0195312 22.9226 0.0195312 23.0491 0.0195312 23.1438V23.3013C0.0195312 23.3967 0.0195312 23.5232 0.0195312 23.6178C0.0195312 23.7125 0.0195312 23.8397 0.0195312 23.9337V24.0919C0.0195312 24.1866 0.0195312 24.313 0.0195312 24.4084C0.0195312 24.4333 0.0416451 24.4582 0.088637 24.4775L1.68774 25.1907L17.202 32.1013C17.3088 32.1407 17.4262 32.1407 17.533 32.1013L23.3033 29.6964V26.5403L17.5302 28.9487Z" fill="#27806D"/>
<path d="M34.2554 9.69936C33.3888 9.31306 32.3632 9.03318 31.2652 8.85972C30.8505 8.79062 30.4317 8.74501 30.004 8.70976C29.8492 8.69732 29.6923 8.68627 29.5368 8.67797C27.1872 8.54598 24.7236 8.85972 22.8854 9.6261C21.3851 10.2481 20.5676 11.0656 20.4404 11.8955C20.4321 11.9508 20.4266 12.0061 20.4238 12.0614C20.4066 12.4498 20.5406 12.8381 20.8247 13.2113C21.1909 13.6895 21.8066 14.1401 22.6732 14.5243C25.7567 15.8981 30.8478 15.9306 34.0467 14.5976C37.2456 13.2645 37.3389 11.0732 34.2554 9.69936Z" fill="#31927E"/>
<path d="M32.9477 11.8781C32.3516 11.6096 31.71 11.4565 31.0569 11.4269C30.4179 11.3997 29.5258 11.4994 28.3805 11.7261L25.8415 10.5948C26.0635 10.5441 26.2889 10.5099 26.516 10.4926C26.9997 10.4539 27.5028 10.5036 28.0184 10.572C28.1411 10.5865 28.2654 10.5687 28.3791 10.5202C28.7246 10.3772 28.9008 10.0088 28.4482 9.93488C27.7368 9.81135 27.0127 9.77722 26.2928 9.8333C25.7891 9.88088 25.2917 9.98141 24.8091 10.1332L24.3364 9.9259C24.1788 9.85679 23.8064 9.93558 23.5306 10.0503C23.2722 10.1581 23.1001 10.2963 23.2687 10.3709L23.7407 10.5783C23.2957 10.8305 23.0496 11.1021 23.0027 11.3937C22.9418 11.7807 23.2374 12.1191 23.8893 12.4089C24.3855 12.63 24.9699 12.7452 25.6425 12.7544C26.2527 12.7641 27.0702 12.6791 28.0778 12.5091L30.9574 13.7917C30.6672 13.8663 30.371 13.9153 30.0722 13.9382C29.4734 13.9762 28.8723 13.951 28.2789 13.8629C28.1841 13.8497 28.0876 13.8619 27.999 13.8981C27.677 14.0363 27.5712 14.462 27.8815 14.5201C28.6447 14.6564 29.4219 14.697 30.1952 14.641C30.8089 14.5879 31.4138 14.4593 31.9961 14.2581L32.3769 14.4274C32.5151 14.4903 32.8433 14.4129 33.1059 14.3031C33.3685 14.1932 33.5821 14.0432 33.4452 13.9824L33.0306 13.7979C33.5033 13.527 33.7838 13.2451 33.8543 12.9562C33.9552 12.5512 33.6546 12.1919 32.9477 11.8781ZM26.1221 12.0668C25.6701 12.0774 25.285 12.0117 24.9666 11.8698C24.6446 11.7254 24.4988 11.5533 24.5313 11.3536C24.5492 11.2403 24.6301 11.1339 24.7607 11.035L26.903 11.9901C26.6443 12.0298 26.3836 12.0554 26.1221 12.0668ZM32.3769 12.9652C32.3478 13.0999 32.2255 13.2298 32.0348 13.3556L29.596 12.2693C30.6437 12.1394 31.4073 12.1774 31.8765 12.3861C32.2573 12.5547 32.4232 12.7468 32.3762 12.9638L32.3769 12.9652Z" fill="#83C4B4"/>
<path d="M49.4481 6.01861L43.3985 3.32349C42.7185 3.60682 41.9031 3.79963 41.0393 3.90259C40.5118 3.96485 39.981 3.99439 39.4498 3.99105C38.7498 3.98918 38.0512 3.92792 37.3615 3.80792C36.8966 3.72691 36.439 3.60858 35.9932 3.4541L48.7086 9.09174C47.2367 8.15329 47.493 6.83337 49.4481 6.01861Z" fill="#83C4B4"/>
<path d="M42.3213 12.214L29.0744 5.9834L14.6956 11.9763L28.3578 18.0354L42.3213 12.214ZM22.6731 14.5269C21.8065 14.14 21.1908 13.6894 20.8245 13.2139C20.5405 12.8408 20.4099 12.4538 20.4237 12.064C20.4265 12.0087 20.432 11.9534 20.4403 11.8982C20.5675 11.0689 21.385 10.2534 22.8853 9.62873C24.7235 8.86234 27.1878 8.5486 29.5367 8.6806C29.6922 8.68889 29.8491 8.69995 30.0039 8.71238C30.4316 8.74763 30.8532 8.79669 31.265 8.86234C32.3631 9.0358 33.3887 9.31568 34.2553 9.70198C37.3388 11.0758 37.2448 13.2699 34.0479 14.603C30.8511 15.936 25.7566 15.9008 22.6731 14.5269Z" fill="#83C4B4"/>
<path d="M7.75175 14.8704C9.83114 15.8103 9.75581 17.3451 7.58105 18.2525L13.3859 20.8384C15.5711 19.9283 19.1521 19.9511 21.2585 20.8895L21.3746 20.9441L21.4368 20.9186L8.19057 14.688L7.75175 14.8704Z" fill="#83C4B4"/>
<path d="M56.9128 7.76494L56.8596 7.79811L51.1536 10.1767L51.195 10.1947V13.3231L55.199 11.6535L56.8658 10.959C56.9128 10.939 56.935 10.9134 56.935 10.8899C56.935 9.83673 56.9329 8.7831 56.9287 7.729L56.9163 7.75526L56.9128 7.76494Z" fill="#27806D"/>
<path d="M30.2693 18.8813L30.3184 18.9028V22.0243L44.1824 16.245V13.0903L44.1741 13.0854L30.2693 18.8813Z" fill="#27806D"/>
<path d="M23.2889 21.79L17.5096 24.1991C17.4028 24.2388 17.2853 24.2388 17.1786 24.1991L0.0693499 16.5698L0.0195938 16.5366L0.0140653 16.5256L0.000244141 16.5C0.000244141 16.764 0.000244141 17.0273 0.000244141 17.2906C0.000244141 17.5539 0.000244141 17.8178 0.000244141 18.0811C0.000244141 18.1758 0.000244141 18.303 0.000244141 18.397C0.000244141 18.4446 0.000244141 18.5075 0.000244141 18.5552C0.000244141 18.6499 0.000244141 18.7763 0.000244141 18.871C0.000244141 18.9657 0.000244141 19.0922 0.000244141 19.1875V19.3485C0.000244141 19.4432 0.000244141 19.569 0.000244141 19.6644C0.000244141 19.6892 0.0216669 19.7148 0.0652035 19.7335L1.75207 20.4846L17.1792 27.3593C17.286 27.3991 17.4035 27.3991 17.5103 27.3593L23.3062 24.9461V21.7983L23.2889 21.79Z" fill="#27806D"/>
<path d="M30.2692 18.8814L28.3577 18.0335L14.6955 11.9764L12.793 11.1333L6.34546 13.8201L8.19058 14.6881L21.4368 20.9187L23.2895 21.7901L23.3061 21.7984L30.3182 18.9029L30.2692 18.8814Z" fill="#F8C46F"/>
<path d="M23.3062 21.7984V34.4019L24.4975 33.9057L30.3183 31.4794V18.9028L23.3062 21.7984Z" fill="#F3A656"/>
<path d="M29.4192 31.8559L29.2623 31.9215V19.3408L24.5901 21.2682L24.5659 33.8765L29.4192 31.8559Z" fill="#F9C671"/>
<path d="M24.5901 21.2684L29.2685 19.3362L11.7557 11.5652L12.793 11.1333L6.34546 13.8201L7.62322 13.2873L24.5901 21.2684Z" fill="#FCDB89"/>
<path d="M51.1461 10.1698L49.2346 9.32253L35.5717 3.26472L33.6692 2.42163L27.2217 5.10915L29.0668 5.97643L42.313 12.207L44.1664 13.0791L44.1823 13.086L51.1952 10.1919L51.1461 10.1698Z" fill="#F8C46F"/>
<path d="M44.1824 13.086V25.6902L45.3738 25.1941L51.1952 22.7678V10.1919L44.1824 13.086Z" fill="#F3A656"/>
<path d="M50.2952 23.1451L50.1384 23.2101V10.6294L45.4661 12.5568L45.4426 25.1651L50.2952 23.1451Z" fill="#F9C671"/>
<path d="M45.4663 12.5567L50.1454 10.6252L32.6327 2.85354L33.6692 2.42163L27.2217 5.10915L28.5001 4.57635L45.4663 12.5567Z" fill="#FCDB89"/>
</svg>
