<svg id="Layer_1" data-name="Layer 1" xmlns="http://www.w3.org/2000/svg" viewBox="0 0 549 320"><defs><style>.cls-1{fill:#ccc2f0;}.cls-2,.cls-4{fill:#e7ecf4;}.cls-3,.cls-4{opacity:0.5;}</style></defs><path class="cls-1" d="M279.22,22.56c53.77,0,97.48,44,96.68,97.53-.22,14.63-5.49,28-11.23,41.23-13.77,31.55-32.06,60.53-51.15,89-10.26,15.33-21,30.31-32,45.11-1.66,2.23-2.59,2.92-4.62.18-27.5-37.14-53.66-75.15-74.83-116.34-8.13-15.82-15.91-31.93-18.66-49.65-3.77-24.25,2.77-46.37,16.71-66.24C218.38,37.37,247.43,22.58,279.22,22.56Z"/><path class="cls-2" d="M325.47,108.05c.11,6.22-2,11.81-4.9,17.17-4.68,8.73-10.95,16.28-17.67,23.47A247.26,247.26,0,0,1,281,169.15c-1.38,1.16-2.27,1.34-3.75.09-13.42-11.33-26.15-23.32-36-38-4.18-6.21-7.75-12.77-8.4-20.43C231.39,93.22,246,82,262.69,87.82a31,31,0,0,1,15.08,11.46c1.24,1.73,1.66,1.31,2.71-.08,4.93-6.58,11.27-11.13,19.5-12.52C314.16,84.3,325,93.42,325.47,108.05Z"/><g class="cls-3"><path class="cls-2" d="M158.39,203.23c.19,9.43-3,17.91-7.37,26C144,242.52,134.47,254,124.3,264.91A375,375,0,0,1,91.24,296c-2.1,1.77-3.44,2-5.69.15C65.17,279,45.84,260.87,30.83,238.65c-6.36-9.4-11.78-19.32-12.79-31-2.3-26.65,19.83-43.75,45.12-34.93a47,47,0,0,1,22.91,17.32c1.88,2.61,2.52,2,4.1-.13,7.45-10,17-16.91,29.52-19C141.17,167.26,157.58,181.06,158.39,203.23Z"/></g><path class="cls-4" d="M511.62,181.35c-12.92-13.16-29.85-19.74-50.29-19.74s-37.13,6.58-50.06,19.74C398.35,194.27,392,210.49,392,229.52s6.34,35.25,19.26,48.41c12.93,12.93,29.61,19.51,50.06,19.51s37.37-6.58,50.29-19.51c12.93-13.16,19.5-29.37,19.5-48.41S524.55,194.27,511.62,181.35Zm-19,50.57c-3.65,6.8-8.53,12.68-13.77,18.29a192.76,192.76,0,0,1-17,15.93c-1.08.91-1.77,1-2.92.07-10.46-8.83-20.37-18.16-28.06-29.6-3.26-4.83-6-9.94-6.54-15.91-1.16-13.7,10.23-22.47,23.22-17.91a24.1,24.1,0,0,1,11.75,8.93c1,1.34,1.3,1,2.11-.07,3.84-5.12,8.78-8.67,15.19-9.75,11.05-1.85,19.46,5.25,19.86,16.65C496.51,223.39,494.85,227.75,492.61,231.92Z"/></svg>