<svg id="Layer_1" data-name="Layer 1" xmlns="http://www.w3.org/2000/svg" viewBox="0 0 782 534"><defs><style>.cls-1{fill:#cbbdec;}.cls-2{fill:#d63468;}.cls-3{fill:#dfe7ef;}</style></defs><path class="cls-1" d="M185.37,261a51.81,51.81,0,0,0-51.89,52.34c.12,7.85,3,15.06,6,22.13C146.9,352.4,156.72,368,167,383.26c5.51,8.22,11.28,16.26,17.18,24.2.9,1.2,1.4,1.57,2.49.1,14.76-19.93,28.79-40.33,40.16-62.44,4.36-8.49,8.54-17.14,10-26.65,2-13-1.48-24.88-9-35.55A51.31,51.31,0,0,0,185.37,261Z"/><path class="cls-2" d="M160.55,306.88a18.68,18.68,0,0,0,2.63,9.21,60.75,60.75,0,0,0,9.48,12.6,133.78,133.78,0,0,0,11.73,11c.75.62,1.22.72,2,.05,7.2-6.08,14-12.52,19.33-20.39,2.24-3.34,4.16-6.86,4.5-11,.8-9.44-7.05-15.48-16-12.34a16.65,16.65,0,0,0-8.09,6.15c-.67.93-.89.71-1.46,0a16.19,16.19,0,0,0-10.46-6.72C166.62,294.13,160.82,299,160.55,306.88Z"/><path class="cls-3" d="M79.68,498.64A51.68,51.68,0,1,1,131.35,447,51.73,51.73,0,0,1,79.68,498.64Zm0-74.2A22.53,22.53,0,1,0,102.21,447,22.56,22.56,0,0,0,79.68,424.44Z"/><circle class="cls-3" cx="101.8" cy="355.85" r="15.92" transform="translate(-264.03 299.65) rotate(-65.3)"/><path class="cls-1" d="M498.89,207.46a439.36,439.36,0,0,1,37.92-29.4,10.94,10.94,0,1,0-12.43-18,460.33,460.33,0,0,0-39.82,30.88,10.94,10.94,0,1,0,14.33,16.53Z"/><path class="cls-3" d="M564.94,220.83A10.94,10.94,0,0,0,580.08,224a370.25,370.25,0,0,1,41.58-23.46,10.94,10.94,0,1,0-9.5-19.71,391.49,391.49,0,0,0-44,24.85A10.93,10.93,0,0,0,564.94,220.83Z"/><path class="cls-1" d="M562.92,148.59a11,11,0,0,0,14.82,4.46,430.43,430.43,0,0,1,43.43-20.31A10.94,10.94,0,0,0,613,112.43a454.8,454.8,0,0,0-45.64,21.34A10.93,10.93,0,0,0,562.92,148.59Z"/><path class="cls-3" d="M475.44,118.5a10.94,10.94,0,0,0,13,17.6c12.88-9.52,26.35-18.5,40.06-26.7a10.94,10.94,0,0,0-11.23-18.77C503,99.19,488.88,108.57,475.44,118.5Z"/><path class="cls-1" d="M653.16,109.77a11,11,0,0,0,13.46,7.63,433.23,433.23,0,0,1,46.88-10.18,10.93,10.93,0,0,0,9.22-10.79,11.31,11.31,0,0,0-.14-1.73,10.94,10.94,0,0,0-12.53-9.08,452.8,452.8,0,0,0-49.26,10.69A11,11,0,0,0,653.16,109.77Z"/><path class="cls-1" d="M368.76,224.39c-10,13.36-19.5,27.37-28.18,41.63a10.94,10.94,0,0,0,18.69,11.37c8.31-13.66,17.39-27.07,27-39.86a10.94,10.94,0,1,0-17.5-13.14Z"/><path class="cls-1" d="M459.9,310.9a393.58,393.58,0,0,0-26.11,43.35,10.94,10.94,0,1,0,19.44,10.06,368.75,368.75,0,0,1,24.65-40.94,10.94,10.94,0,0,0-18-12.47Z"/><path class="cls-1" d="M652,312.77a10.94,10.94,0,0,0,14.8,4.51,245.55,245.55,0,0,1,43.45-18A10.93,10.93,0,0,0,718,288.81a11.05,11.05,0,0,0-.47-3.19,10.94,10.94,0,0,0-13.66-7.27A266.46,266.46,0,0,0,656.53,298,10.94,10.94,0,0,0,652,312.77Z"/><path class="cls-1" d="M584.73,297.93a310.25,310.25,0,0,1,38.64-27.58,10.93,10.93,0,0,0,5.3-9.38,10.82,10.82,0,0,0-1.58-5.63,10.94,10.94,0,0,0-15-3.72,331.9,331.9,0,0,0-41.38,29.53,10.94,10.94,0,0,0,14,16.78Z"/><path class="cls-1" d="M507.59,286a372.81,372.81,0,0,1,34.26-33.31A10.94,10.94,0,1,0,527.63,236a395.83,395.83,0,0,0-36.27,35.26A10.94,10.94,0,0,0,507.59,286Z"/><path class="cls-1" d="M782,453.55h0a79.74,79.74,0,0,0-36.08,8.52,10.94,10.94,0,0,0,9.82,19.55A58,58,0,0,1,782,475.43h0Z"/><path class="cls-1" d="M651.51,243.08a10.94,10.94,0,0,0,14.26,6A306.51,306.51,0,0,1,711,234.6a10.94,10.94,0,1,0-5-21.29,328,328,0,0,0-48.45,15.51A10.93,10.93,0,0,0,651.51,243.08Z"/><path class="cls-1" d="M561.61,67A10.94,10.94,0,1,0,571,86.73c14.46-6.83,29.42-13,44.46-18.41a10.94,10.94,0,1,0-7.37-20.6C592.34,53.34,576.71,59.81,561.61,67Z"/><path class="cls-1" d="M745.08,29.83A10.94,10.94,0,0,0,756.56,40.2c8.44-.42,17-.64,25.44-.64h0V17.68h0c-8.81,0-17.74.23-26.54.67A11,11,0,0,0,745.08,29.83Z"/><path class="cls-1" d="M448.37,226a456.78,456.78,0,0,0-32.1,38.86,10.94,10.94,0,1,0,17.61,13,435.71,435.71,0,0,1,30.56-37A10.94,10.94,0,1,0,448.37,226Z"/><path class="cls-3" d="M388.65,307.05a451.6,451.6,0,0,0-22.77,45,10.94,10.94,0,1,0,20,8.77A432.62,432.62,0,0,1,407.59,318a10.94,10.94,0,1,0-18.94-10.95Z"/><path class="cls-1" d="M782,266.75h0a272.33,272.33,0,0,0-27.9,1.44A10.94,10.94,0,0,0,756.36,290,251.12,251.12,0,0,1,782,288.63h0Z"/><path class="cls-1" d="M760.19,80.47a10.83,10.83,0,0,0-10.41,11.44,10.94,10.94,0,0,0,11.44,10.41c6.86-.32,13.85-.49,20.78-.49h0V80h0C774.72,80,767.38,80.12,760.19,80.47Z"/><path class="cls-1" d="M717.88,32.53a10.94,10.94,0,0,0-12.43-9.21c-16.53,2.46-33.12,5.76-49.29,9.81a10.94,10.94,0,0,0,5.31,21.23c15.49-3.88,31.37-7,47.2-9.4A10.93,10.93,0,0,0,718,34.16,11.28,11.28,0,0,0,717.88,32.53Z"/><path class="cls-1" d="M721.06,159.94a10.51,10.51,0,0,0-.2-2.07,10.94,10.94,0,0,0-12.8-8.69,391.85,391.85,0,0,0-49,12.71,10.94,10.94,0,1,0,6.86,20.78,367.91,367.91,0,0,1,46.23-12A10.94,10.94,0,0,0,721.06,159.94Z"/><path class="cls-1" d="M756.19,205.48a10.94,10.94,0,0,0,1.69,21.82c8-.62,16.08-.94,24.12-.94h0V204.48h0C773.4,204.48,764.72,204.82,756.19,205.48Z"/><path class="cls-1" d="M748,154.49a10.94,10.94,0,0,0,11.57,10.27c7.44-.45,15-.67,22.43-.67h0V142.21c-7.87,0-15.86.24-23.74.71A10.9,10.9,0,0,0,748,154.49Z"/><path class="cls-1" d="M400.84,185.7A10.94,10.94,0,0,0,417,200.47c10.81-11.82,22.3-23.23,34.17-33.92a10.94,10.94,0,0,0-14.64-16.25C424.13,161.46,412.12,173.37,400.84,185.7Z"/><path class="cls-1" d="M642.67,503a143.31,143.31,0,0,0-3.24,31h21.85A121.77,121.77,0,0,1,664,507.7a11.41,11.41,0,0,0,.26-2.38A10.94,10.94,0,0,0,642.67,503Z"/><path class="cls-1" d="M579.45,502.33A206.3,206.3,0,0,0,577.12,534H599a185.31,185.31,0,0,1,2.08-28.31,10.94,10.94,0,1,0-21.62-3.36Z"/><path class="cls-1" d="M516.71,501.42A271.72,271.72,0,0,0,514.83,534H536.7a248.44,248.44,0,0,1,1.73-29.94,12,12,0,0,0,.08-1.33,10.94,10.94,0,0,0-21.8-1.31Z"/><path class="cls-1" d="M728.85,507.06a10.94,10.94,0,0,0-21-4.25A80.52,80.52,0,0,0,701.65,534H723.5A58.58,58.58,0,0,1,728,511.3,11,11,0,0,0,728.85,507.06Z"/><path class="cls-1" d="M613.94,461.2a182.86,182.86,0,0,1,23.67-39.82,10.94,10.94,0,0,0-17.24-13.46,204.83,204.83,0,0,0-26.51,44.57,10.94,10.94,0,0,0,20.08,8.71Z"/><path class="cls-1" d="M666.56,469.45a10.94,10.94,0,0,0,15.19-2.95,121.17,121.17,0,0,1,31.56-31.93,10.94,10.94,0,1,0-12.46-18,142.7,142.7,0,0,0-37.23,37.68A10.93,10.93,0,0,0,666.56,469.45Z"/><path class="cls-1" d="M329.34,498.16C328.42,510,328,522,328,534h21.88c0-11.39.42-22.85,1.31-34.14,0-.29,0-.57,0-.86a10.94,10.94,0,0,0-21.85-.84Z"/><path class="cls-1" d="M454.17,500.4c-1.12,11.09-1.62,22.37-1.63,33.6h21.88a312.29,312.29,0,0,1,1.52-31.4,10.32,10.32,0,0,0,.06-1.11,10.94,10.94,0,0,0-21.83-1.09Z"/><path class="cls-1" d="M266.56,503.68c-.59,10-.78,20.19-.78,30.32h21.88c0-9.7.19-19.44.74-29.06,0-.21,0-.43,0-.64a10.94,10.94,0,0,0-21.86-.62Z"/><path class="cls-1" d="M391.73,499.29c-1,11.48-1.47,23.13-1.47,34.71h21.87c0-10.94.44-22,1.4-32.8,0-.33,0-.65,0-1a10.94,10.94,0,0,0-21.84-.94Z"/><path class="cls-1" d="M763.81,534h14.5a3.69,3.69,0,0,1,3.69-3.69h0v-14.5h0A18.21,18.21,0,0,0,763.81,534Z"/><path class="cls-1" d="M522.24,369.1a309.68,309.68,0,0,1,28.51-38,10.94,10.94,0,0,0-16.45-14.44,333.35,333.35,0,0,0-30.52,40.68,10.94,10.94,0,1,0,18.46,11.75Z"/><path class="cls-3" d="M655.16,386.74a10.94,10.94,0,0,0,15.34,2,183.15,183.15,0,0,1,40-23.36,10.94,10.94,0,0,0-8.56-20.14,205,205,0,0,0-44.76,26.16A10.94,10.94,0,0,0,655.16,386.74Z"/><path class="cls-1" d="M782,329h0a208.68,208.68,0,0,0-30.14,2.21,10.94,10.94,0,1,0,3.19,21.64,187.41,187.41,0,0,1,27-2h0Z"/><path class="cls-1" d="M594,376.26a247.27,247.27,0,0,1,33.56-33,10.94,10.94,0,0,0-13.77-17,270.24,270.24,0,0,0-36.55,35.91A10.94,10.94,0,0,0,594,376.26Z"/><path class="cls-1" d="M749.3,395.05a10.94,10.94,0,1,0,5,21.3A121.37,121.37,0,0,1,782,413.16h0V391.28A142.83,142.83,0,0,0,749.3,395.05Z"/><path class="cls-1" d="M316.58,310.19c-7.24,15-13.83,30.62-19.57,46.3A10.94,10.94,0,0,0,317.55,364c5.5-15,11.81-29.93,18.74-44.32a10.94,10.94,0,1,0-19.71-9.5Z"/><path class="cls-1" d="M348.27,399.3A451.51,451.51,0,0,0,336,448.2a10.94,10.94,0,0,0,21.49,4.12,432.4,432.4,0,0,1,11.63-46.54,10.77,10.77,0,0,0,.5-3.24,10.94,10.94,0,0,0-21.39-3.24Z"/><path class="cls-1" d="M282.06,404.49c-4.17,16.16-7.6,32.72-10.17,49.22a10.94,10.94,0,0,0,21.62,3.38c2.46-15.8,5.74-31.65,9.74-47.13a11.33,11.33,0,0,0,.35-2.75,10.94,10.94,0,0,0-21.54-2.72Z"/><path class="cls-1" d="M484.36,455.89A307.22,307.22,0,0,1,499.92,411a10.79,10.79,0,0,0,.92-4.37,10.94,10.94,0,0,0-21-4.39,328.74,328.74,0,0,0-16.68,48.09,10.94,10.94,0,0,0,21.17,5.54Z"/><path class="cls-3" d="M548.57,458.14A245,245,0,0,1,567.35,415a10.94,10.94,0,1,0-19.13-10.63,266.59,266.59,0,0,0-20.46,47,10.94,10.94,0,1,0,20.81,6.75Z"/><path class="cls-1" d="M420.77,454a368.35,368.35,0,0,1,13.3-45.9,10.94,10.94,0,0,0-20.57-7.45,389.85,389.85,0,0,0-14.1,48.64A10.94,10.94,0,1,0,420.77,454Z"/></svg>