<svg width="375" height="309" viewBox="0 0 375 309" fill="none" xmlns="http://www.w3.org/2000/svg">
<path d="M133.031 289.492C132.959 289.612 132.879 289.704 132.791 289.768C132.711 289.824 132.611 289.852 132.491 289.852C132.355 289.852 132.195 289.784 132.011 289.648C131.827 289.512 131.595 289.364 131.315 289.204C131.043 289.036 130.711 288.884 130.319 288.748C129.935 288.612 129.467 288.544 128.915 288.544C128.395 288.544 127.935 288.616 127.535 288.76C127.143 288.896 126.811 289.084 126.539 289.324C126.275 289.564 126.075 289.848 125.939 290.176C125.803 290.496 125.735 290.844 125.735 291.22C125.735 291.7 125.851 292.1 126.083 292.42C126.323 292.732 126.635 293 127.019 293.224C127.411 293.448 127.851 293.644 128.339 293.812C128.835 293.972 129.339 294.14 129.851 294.316C130.371 294.492 130.875 294.692 131.363 294.916C131.859 295.132 132.299 295.408 132.683 295.744C133.075 296.08 133.387 296.492 133.619 296.98C133.859 297.468 133.979 298.068 133.979 298.78C133.979 299.532 133.851 300.24 133.595 300.904C133.339 301.56 132.963 302.132 132.467 302.62C131.979 303.108 131.375 303.492 130.655 303.772C129.943 304.052 129.131 304.192 128.219 304.192C127.099 304.192 126.083 303.992 125.171 303.592C124.259 303.184 123.479 302.636 122.831 301.948L123.503 300.844C123.567 300.756 123.643 300.684 123.731 300.628C123.827 300.564 123.931 300.532 124.043 300.532C124.147 300.532 124.263 300.576 124.391 300.664C124.527 300.744 124.679 300.848 124.847 300.976C125.015 301.104 125.207 301.244 125.423 301.396C125.639 301.548 125.883 301.688 126.155 301.816C126.435 301.944 126.751 302.052 127.103 302.14C127.455 302.22 127.851 302.26 128.291 302.26C128.843 302.26 129.335 302.184 129.767 302.032C130.199 301.88 130.563 301.668 130.859 301.396C131.163 301.116 131.395 300.784 131.555 300.4C131.715 300.016 131.795 299.588 131.795 299.116C131.795 298.596 131.675 298.172 131.435 297.844C131.203 297.508 130.895 297.228 130.511 297.004C130.127 296.78 129.687 296.592 129.191 296.44C128.695 296.28 128.191 296.12 127.679 295.96C127.167 295.792 126.663 295.6 126.167 295.384C125.671 295.168 125.231 294.888 124.847 294.544C124.463 294.2 124.151 293.772 123.911 293.26C123.679 292.74 123.563 292.1 123.563 291.34C123.563 290.732 123.679 290.144 123.911 289.576C124.151 289.008 124.495 288.504 124.943 288.064C125.399 287.624 125.955 287.272 126.611 287.008C127.275 286.744 128.035 286.612 128.891 286.612C129.851 286.612 130.723 286.764 131.507 287.068C132.299 287.372 132.995 287.812 133.595 288.388L133.031 289.492ZM138.901 291.844V304H136.765V291.844H138.901ZM139.357 288.028C139.357 288.236 139.313 288.432 139.225 288.616C139.145 288.792 139.033 288.952 138.889 289.096C138.753 289.232 138.589 289.34 138.397 289.42C138.213 289.5 138.017 289.54 137.809 289.54C137.601 289.54 137.405 289.5 137.221 289.42C137.045 289.34 136.889 289.232 136.753 289.096C136.617 288.952 136.509 288.792 136.429 288.616C136.349 288.432 136.309 288.236 136.309 288.028C136.309 287.82 136.349 287.624 136.429 287.44C136.509 287.248 136.617 287.084 136.753 286.948C136.889 286.804 137.045 286.692 137.221 286.612C137.405 286.532 137.601 286.492 137.809 286.492C138.017 286.492 138.213 286.532 138.397 286.612C138.589 286.692 138.753 286.804 138.889 286.948C139.033 287.084 139.145 287.248 139.225 287.44C139.313 287.624 139.357 287.82 139.357 288.028ZM144.427 293.608C144.691 293.312 144.971 293.044 145.267 292.804C145.563 292.564 145.875 292.36 146.203 292.192C146.539 292.016 146.891 291.884 147.259 291.796C147.635 291.7 148.039 291.652 148.471 291.652C149.135 291.652 149.719 291.764 150.223 291.988C150.735 292.204 151.159 292.516 151.495 292.924C151.839 293.324 152.099 293.808 152.275 294.376C152.451 294.944 152.539 295.572 152.539 296.26V304H150.391V296.26C150.391 295.34 150.179 294.628 149.755 294.124C149.339 293.612 148.703 293.356 147.847 293.356C147.215 293.356 146.623 293.508 146.071 293.812C145.527 294.116 145.023 294.528 144.559 295.048V304H142.411V291.844H143.695C143.999 291.844 144.187 291.992 144.259 292.288L144.427 293.608ZM162.726 304V293.668L161.382 293.512C161.214 293.472 161.074 293.412 160.962 293.332C160.858 293.244 160.806 293.12 160.806 292.96V292.084H162.726V290.908C162.726 290.212 162.822 289.596 163.014 289.06C163.214 288.516 163.494 288.06 163.854 287.692C164.222 287.316 164.662 287.032 165.174 286.84C165.686 286.648 166.262 286.552 166.902 286.552C167.446 286.552 167.946 286.632 168.402 286.792L168.354 287.86C168.338 288.052 168.23 288.156 168.03 288.172C167.838 288.188 167.578 288.196 167.25 288.196C166.882 288.196 166.546 288.244 166.242 288.34C165.946 288.436 165.69 288.592 165.474 288.808C165.258 289.024 165.09 289.308 164.97 289.66C164.858 290.012 164.802 290.448 164.802 290.968V292.084H168.306V293.632H164.874V304H162.726ZM176.866 298.528C175.882 298.56 175.042 298.64 174.346 298.768C173.658 298.888 173.094 299.048 172.654 299.248C172.222 299.448 171.906 299.684 171.706 299.956C171.514 300.228 171.418 300.532 171.418 300.868C171.418 301.188 171.47 301.464 171.574 301.696C171.678 301.928 171.818 302.12 171.994 302.272C172.178 302.416 172.39 302.524 172.63 302.596C172.878 302.66 173.142 302.692 173.422 302.692C173.798 302.692 174.142 302.656 174.454 302.584C174.766 302.504 175.058 302.392 175.33 302.248C175.61 302.104 175.874 301.932 176.122 301.732C176.378 301.532 176.626 301.304 176.866 301.048V298.528ZM169.966 293.56C170.638 292.912 171.362 292.428 172.138 292.108C172.914 291.788 173.774 291.628 174.718 291.628C175.398 291.628 176.002 291.74 176.53 291.964C177.058 292.188 177.502 292.5 177.862 292.9C178.222 293.3 178.494 293.784 178.678 294.352C178.862 294.92 178.954 295.544 178.954 296.224V304H178.006C177.798 304 177.638 303.968 177.526 303.904C177.414 303.832 177.326 303.696 177.262 303.496L177.022 302.344C176.702 302.64 176.39 302.904 176.086 303.136C175.782 303.36 175.462 303.552 175.126 303.712C174.79 303.864 174.43 303.98 174.046 304.06C173.67 304.148 173.25 304.192 172.786 304.192C172.314 304.192 171.87 304.128 171.454 304C171.038 303.864 170.674 303.664 170.362 303.4C170.058 303.136 169.814 302.804 169.63 302.404C169.454 301.996 169.366 301.516 169.366 300.964C169.366 300.484 169.498 300.024 169.762 299.584C170.026 299.136 170.454 298.74 171.046 298.396C171.638 298.052 172.41 297.772 173.362 297.556C174.314 297.332 175.482 297.204 176.866 297.172V296.224C176.866 295.28 176.662 294.568 176.254 294.088C175.846 293.6 175.25 293.356 174.466 293.356C173.938 293.356 173.494 293.424 173.134 293.56C172.782 293.688 172.474 293.836 172.21 294.004C171.954 294.164 171.73 294.312 171.538 294.448C171.354 294.576 171.17 294.64 170.986 294.64C170.842 294.64 170.718 294.604 170.614 294.532C170.51 294.452 170.422 294.356 170.35 294.244L169.966 293.56ZM192.366 291.844L187.41 304H185.49L180.534 291.844H182.274C182.45 291.844 182.594 291.888 182.706 291.976C182.818 292.064 182.894 292.168 182.934 292.288L186.018 300.112C186.114 300.408 186.198 300.696 186.27 300.976C186.342 301.256 186.41 301.536 186.474 301.816C186.538 301.536 186.606 301.256 186.678 300.976C186.75 300.696 186.838 300.408 186.942 300.112L190.062 292.288C190.11 292.16 190.19 292.056 190.302 291.976C190.414 291.888 190.546 291.844 190.698 291.844H192.366ZM199.121 291.652C200.009 291.652 200.809 291.8 201.521 292.096C202.233 292.392 202.841 292.812 203.345 293.356C203.849 293.9 204.233 294.56 204.497 295.336C204.769 296.104 204.905 296.964 204.905 297.916C204.905 298.876 204.769 299.74 204.497 300.508C204.233 301.276 203.849 301.932 203.345 302.476C202.841 303.02 202.233 303.44 201.521 303.736C200.809 304.024 200.009 304.168 199.121 304.168C198.225 304.168 197.417 304.024 196.697 303.736C195.985 303.44 195.377 303.02 194.873 302.476C194.369 301.932 193.981 301.276 193.709 300.508C193.445 299.74 193.313 298.876 193.313 297.916C193.313 296.964 193.445 296.104 193.709 295.336C193.981 294.56 194.369 293.9 194.873 293.356C195.377 292.812 195.985 292.392 196.697 292.096C197.417 291.8 198.225 291.652 199.121 291.652ZM199.121 302.5C200.321 302.5 201.217 302.1 201.809 301.3C202.401 300.492 202.697 299.368 202.697 297.928C202.697 296.48 202.401 295.352 201.809 294.544C201.217 293.736 200.321 293.332 199.121 293.332C198.513 293.332 197.981 293.436 197.525 293.644C197.077 293.852 196.701 294.152 196.397 294.544C196.101 294.936 195.877 295.42 195.725 295.996C195.581 296.564 195.509 297.208 195.509 297.928C195.509 299.368 195.805 300.492 196.397 301.3C196.997 302.1 197.905 302.5 199.121 302.5ZM209.642 294.28C210.026 293.448 210.498 292.8 211.058 292.336C211.618 291.864 212.302 291.628 213.11 291.628C213.366 291.628 213.61 291.656 213.842 291.712C214.082 291.768 214.294 291.856 214.478 291.976L214.322 293.572C214.274 293.772 214.154 293.872 213.962 293.872C213.85 293.872 213.686 293.848 213.47 293.8C213.254 293.752 213.01 293.728 212.738 293.728C212.354 293.728 212.01 293.784 211.706 293.896C211.41 294.008 211.142 294.176 210.902 294.4C210.67 294.616 210.458 294.888 210.266 295.216C210.082 295.536 209.914 295.904 209.762 296.32V304H207.614V291.844H208.838C209.07 291.844 209.23 291.888 209.318 291.976C209.406 292.064 209.466 292.216 209.498 292.432L209.642 294.28ZM218.612 291.844V304H216.476V291.844H218.612ZM219.068 288.028C219.068 288.236 219.024 288.432 218.936 288.616C218.856 288.792 218.744 288.952 218.6 289.096C218.464 289.232 218.3 289.34 218.108 289.42C217.924 289.5 217.728 289.54 217.52 289.54C217.312 289.54 217.116 289.5 216.932 289.42C216.756 289.34 216.6 289.232 216.464 289.096C216.328 288.952 216.22 288.792 216.14 288.616C216.06 288.432 216.02 288.236 216.02 288.028C216.02 287.82 216.06 287.624 216.14 287.44C216.22 287.248 216.328 287.084 216.464 286.948C216.6 286.804 216.756 286.692 216.932 286.612C217.116 286.532 217.312 286.492 217.52 286.492C217.728 286.492 217.924 286.532 218.108 286.612C218.3 286.692 218.464 286.804 218.6 286.948C218.744 287.084 218.856 287.248 218.936 287.44C219.024 287.624 219.068 287.82 219.068 288.028ZM225.854 304.192C224.894 304.192 224.154 303.924 223.634 303.388C223.122 302.852 222.866 302.08 222.866 301.072V293.632H221.402C221.274 293.632 221.166 293.596 221.078 293.524C220.99 293.444 220.946 293.324 220.946 293.164V292.312L222.938 292.06L223.43 288.304C223.454 288.184 223.506 288.088 223.586 288.016C223.674 287.936 223.786 287.896 223.922 287.896H225.002V292.084H228.518V293.632H225.002V300.928C225.002 301.44 225.126 301.82 225.374 302.068C225.622 302.316 225.942 302.44 226.334 302.44C226.558 302.44 226.75 302.412 226.91 302.356C227.078 302.292 227.222 302.224 227.342 302.152C227.462 302.08 227.562 302.016 227.642 301.96C227.73 301.896 227.806 301.864 227.87 301.864C227.982 301.864 228.082 301.932 228.17 302.068L228.794 303.088C228.426 303.432 227.982 303.704 227.462 303.904C226.942 304.096 226.406 304.192 225.854 304.192ZM235.777 291.652C236.665 291.652 237.465 291.8 238.177 292.096C238.889 292.392 239.497 292.812 240.001 293.356C240.505 293.9 240.889 294.56 241.153 295.336C241.425 296.104 241.561 296.964 241.561 297.916C241.561 298.876 241.425 299.74 241.153 300.508C240.889 301.276 240.505 301.932 240.001 302.476C239.497 303.02 238.889 303.44 238.177 303.736C237.465 304.024 236.665 304.168 235.777 304.168C234.881 304.168 234.073 304.024 233.353 303.736C232.641 303.44 232.033 303.02 231.529 302.476C231.025 301.932 230.637 301.276 230.365 300.508C230.101 299.74 229.969 298.876 229.969 297.916C229.969 296.964 230.101 296.104 230.365 295.336C230.637 294.56 231.025 293.9 231.529 293.356C232.033 292.812 232.641 292.392 233.353 292.096C234.073 291.8 234.881 291.652 235.777 291.652ZM235.777 302.5C236.977 302.5 237.873 302.1 238.465 301.3C239.057 300.492 239.353 299.368 239.353 297.928C239.353 296.48 239.057 295.352 238.465 294.544C237.873 293.736 236.977 293.332 235.777 293.332C235.169 293.332 234.637 293.436 234.181 293.644C233.733 293.852 233.357 294.152 233.053 294.544C232.757 294.936 232.533 295.42 232.381 295.996C232.237 296.564 232.165 297.208 232.165 297.928C232.165 299.368 232.461 300.492 233.053 301.3C233.653 302.1 234.561 302.5 235.777 302.5ZM251.35 293.848C251.254 294.024 251.106 294.112 250.906 294.112C250.786 294.112 250.65 294.068 250.498 293.98C250.346 293.892 250.158 293.796 249.934 293.692C249.718 293.58 249.458 293.48 249.154 293.392C248.85 293.296 248.49 293.248 248.074 293.248C247.714 293.248 247.39 293.296 247.102 293.392C246.814 293.48 246.566 293.604 246.358 293.764C246.158 293.924 246.002 294.112 245.89 294.328C245.786 294.536 245.734 294.764 245.734 295.012C245.734 295.324 245.822 295.584 245.998 295.792C246.182 296 246.422 296.18 246.718 296.332C247.014 296.484 247.35 296.62 247.726 296.74C248.102 296.852 248.486 296.976 248.878 297.112C249.278 297.24 249.666 297.384 250.042 297.544C250.418 297.704 250.754 297.904 251.05 298.144C251.346 298.384 251.582 298.68 251.758 299.032C251.942 299.376 252.034 299.792 252.034 300.28C252.034 300.84 251.934 301.36 251.734 301.84C251.534 302.312 251.238 302.724 250.846 303.076C250.454 303.42 249.974 303.692 249.406 303.892C248.838 304.092 248.182 304.192 247.438 304.192C246.59 304.192 245.822 304.056 245.134 303.784C244.446 303.504 243.862 303.148 243.382 302.716L243.886 301.9C243.95 301.796 244.026 301.716 244.114 301.66C244.202 301.604 244.314 301.576 244.45 301.576C244.594 301.576 244.746 301.632 244.906 301.744C245.066 301.856 245.258 301.98 245.482 302.116C245.714 302.252 245.994 302.376 246.322 302.488C246.65 302.6 247.058 302.656 247.546 302.656C247.962 302.656 248.326 302.604 248.638 302.5C248.95 302.388 249.21 302.24 249.418 302.056C249.626 301.872 249.778 301.66 249.874 301.42C249.978 301.18 250.03 300.924 250.03 300.652C250.03 300.316 249.938 300.04 249.754 299.824C249.578 299.6 249.342 299.412 249.046 299.26C248.75 299.1 248.41 298.964 248.026 298.852C247.65 298.732 247.262 298.608 246.862 298.48C246.47 298.352 246.082 298.208 245.698 298.048C245.322 297.88 244.986 297.672 244.69 297.424C244.394 297.176 244.154 296.872 243.97 296.512C243.794 296.144 243.706 295.7 243.706 295.18C243.706 294.716 243.802 294.272 243.994 293.848C244.186 293.416 244.466 293.04 244.834 292.72C245.202 292.392 245.654 292.132 246.19 291.94C246.726 291.748 247.338 291.652 248.026 291.652C248.826 291.652 249.542 291.78 250.174 292.036C250.814 292.284 251.366 292.628 251.83 293.068L251.35 293.848Z" fill="black" fill-opacity="0.5"/>
<path d="M159.032 262.104C158.731 258.638 159.366 255.155 160.872 252.02C162.378 248.884 164.699 246.213 167.592 244.284C170.485 242.356 173.842 241.242 177.313 241.06C180.783 240.878 184.239 241.634 187.317 243.249C188.805 239.268 190.331 235.216 192.962 231.886C195.592 228.555 199.569 226 203.812 226.157V262.104H159.032Z" fill="#EBEBEB"/>
<path d="M41.1399 123.027L18.2566 169.224L25.0911 169.483L5.69931 206.197H15.8845L0 238.813H88.7934L69.2372 206.197L78.6082 205.79L59.8741 169.091L66.7947 168.683L41.1399 123.027Z" fill="#EBEBEB"/>
<path d="M45.0067 176.614C45.1163 176.614 44.9206 196.205 44.5683 220.311C44.216 244.416 43.8402 264.008 43.7228 264C43.6054 263.992 43.8089 244.408 44.1612 220.303C44.5135 196.198 44.8893 176.614 45.0067 176.614Z" fill="#E0E0E0"/>
<path d="M55.8902 187.389C55.4503 188.139 54.9503 188.852 54.3949 189.521C53.432 190.806 52.0463 192.538 50.4806 194.434L46.4879 199.27C45.9621 199.961 45.3893 200.616 44.7734 201.229C45.207 200.474 45.7047 199.758 46.2609 199.089C47.2317 197.812 48.6095 196.072 50.1753 194.176L54.1679 189.341C54.6921 188.648 55.2678 187.995 55.8902 187.389Z" fill="#E0E0E0"/>
<path d="M44.7878 201.229C43.0412 200.117 41.3676 198.895 39.7775 197.569C38.1012 196.341 36.5085 195.004 35.0098 193.564C36.7587 194.673 38.4349 195.893 40.028 197.216C41.7038 198.444 43.2941 199.785 44.7878 201.229Z" fill="#E0E0E0"/>
<path d="M44.1855 223.884C43.5852 223.499 43.024 223.055 42.5102 222.56C41.5081 221.706 40.1616 220.53 38.5958 219.261C37.0301 217.991 35.6053 216.91 34.5719 216.063C33.9704 215.667 33.4046 215.218 32.8809 214.723C33.5219 215.042 34.1302 215.422 34.6971 215.86C35.7775 216.643 37.2415 217.701 38.8072 218.994C40.3729 220.287 41.7273 221.486 42.6824 222.395C43.2302 222.842 43.7336 223.341 44.1855 223.884Z" fill="#E0E0E0"/>
<path d="M56.8368 209.88C56.7251 210.103 56.5857 210.311 56.4218 210.499C56.14 210.891 55.7094 211.432 55.1614 212.067C54.0576 213.375 52.4605 215.115 50.6521 217.004C48.8436 218.892 47.2231 220.585 46.0723 221.847C45.4801 222.552 44.8503 223.224 44.1855 223.861C44.2877 223.634 44.4251 223.425 44.5926 223.242C44.8745 222.85 45.3051 222.309 45.8531 221.674C46.9569 220.358 48.554 218.618 50.3624 216.737C52.1708 214.857 53.7914 213.148 54.9422 211.887C55.5356 211.183 56.1681 210.513 56.8368 209.88Z" fill="#E0E0E0"/>
<path d="M227.377 175.595H320.147L337.48 150.957L355.651 176.293L377 175.948L353.991 144.923L250.55 145.354L227.377 175.595Z" fill="#E0E0E0"/>
<path d="M273.77 175.948V262.315H366.407V175.948H355.791L337.48 150.957L320.092 175.572L273.77 175.948Z" fill="#F5F5F5"/>
<path d="M308.529 224.872H286.859V262.315H308.529V224.872Z" fill="#E0E0E0"/>
<path d="M355.651 223.814H321.518V244.981H355.651V223.814Z" fill="#E0E0E0"/>
<path d="M331.765 223.814H330.982V245.176H331.765V223.814Z" fill="#EBEBEB"/>
<path d="M345.959 223.814H345.176V245.176H345.959V223.814Z" fill="#EBEBEB"/>
<path d="M345.569 234.746H331.375V235.53H345.569V234.746Z" fill="#EBEBEB"/>
<path d="M355.651 181.457H321.518V202.624H355.651V181.457Z" fill="#E0E0E0"/>
<path d="M331.765 181.449H330.982V202.812H331.765V181.449Z" fill="#EBEBEB"/>
<path d="M345.959 181.449H345.176V202.812H345.959V181.449Z" fill="#EBEBEB"/>
<path d="M345.569 192.389H331.375V193.173H345.569V192.389Z" fill="#EBEBEB"/>
<path d="M306.267 181.645H284.738V202.052H306.267V181.645Z" fill="#E0E0E0"/>
<path d="M273.779 175.948H236.178V262.307H273.779V175.948Z" fill="#E0E0E0"/>
<path d="M295.894 181.645H295.111V202.052H295.894V181.645Z" fill="#EBEBEB"/>
<path d="M306.267 191.958H284.738V192.742H306.267V191.958Z" fill="#EBEBEB"/>
<path d="M337.433 172.014C339.954 172.014 341.997 169.968 341.997 167.445C341.997 164.922 339.954 162.876 337.433 162.876C334.913 162.876 332.869 164.922 332.869 167.445C332.869 169.968 334.913 172.014 337.433 172.014Z" fill="#E0E0E0"/>
<path d="M304.874 161.842L310.636 154.726V137.619H298.572V161.975L304.874 161.842Z" fill="#F5F5F5"/>
<path d="M304.873 161.842V137.619H310.635V154.726L304.873 161.842Z" fill="#EBEBEB"/>
<path d="M311.442 135.103H297.225V137.619H311.442V135.103Z" fill="#EBEBEB"/>
<path d="M273.77 213.728H203.812V262.315H273.77V213.728Z" fill="#F5F5F5"/>
<path d="M247.614 213.728H203.812V262.315H247.614V213.728Z" fill="#E0E0E0"/>
<path d="M241.093 229.393H212.447V262.229H241.093V229.393Z" fill="#F5F5F5"/>
<path d="M269.919 229.26H251.467V233.962H269.919V229.26Z" fill="#EBEBEB"/>
<path d="M227.377 175.595V178.095H320.093V175.572L227.377 175.595Z" fill="#EBEBEB"/>
<path d="M320.094 178.095L337.434 153.731L337.481 150.957L320.149 175.595L320.094 178.095Z" fill="#EBEBEB"/>
<path d="M376.555 175.948H355.793V177.562H376.555V175.948Z" fill="#EBEBEB"/>
<path d="M301.139 219.128H293.475V222.043H301.139V219.128Z" fill="#E0E0E0"/>
<path d="M234.204 34.9983C216.856 11.128 191.655 0 165.343 0C165.343 0 100.92 0 81.8417 57.7324C74.7959 79.0088 76.3616 102.111 84.8949 122.831C88.0987 130.708 92.1352 138.219 96.9355 145.236C113.572 169.271 165.343 234.973 165.343 234.973H176.601C191.021 214.88 227.433 148.112 238.33 126.734C252.015 99.8699 254.113 62.4187 234.204 34.9983ZM176.092 141.796C165.206 141.797 154.564 138.567 145.512 132.514C136.461 126.462 129.405 117.858 125.239 107.791C121.072 97.7236 119.982 86.6459 122.105 75.9585C124.228 65.271 129.47 55.454 137.168 47.7488C144.865 40.0437 154.672 34.7966 165.349 32.6711C176.026 30.5456 187.092 31.6373 197.149 35.808C207.206 39.9787 215.801 47.0411 221.848 56.1021C227.895 65.163 231.121 75.8155 231.12 86.7122C231.118 101.321 225.32 115.33 215 125.66C204.681 135.99 190.685 141.794 176.092 141.796Z" fill="#E8505B"/>
<path opacity="0.4" d="M234.204 34.9983C216.856 11.128 191.655 0 165.343 0C165.343 0 100.92 0 81.8417 57.7324C74.7959 79.0088 76.3616 102.111 84.8949 122.831C88.0987 130.708 92.1352 138.219 96.9355 145.236C113.572 169.271 165.343 234.973 165.343 234.973H176.601C191.021 214.88 227.433 148.112 238.33 126.734C252.015 99.8699 254.113 62.4187 234.204 34.9983ZM176.092 141.796C165.206 141.797 154.564 138.567 145.512 132.514C136.461 126.462 129.405 117.858 125.239 107.791C121.072 97.7236 119.982 86.6459 122.105 75.9585C124.228 65.271 129.47 55.454 137.168 47.7488C144.865 40.0437 154.672 34.7966 165.349 32.6711C176.026 30.5456 187.092 31.6373 197.149 35.808C207.206 39.9787 215.801 47.0411 221.848 56.1021C227.895 65.163 231.121 75.8155 231.12 86.7122C231.118 101.321 225.32 115.33 215 125.66C204.681 135.99 190.685 141.794 176.092 141.796Z" fill="black"/>
<path d="M245.532 35.4529C228.191 11.5825 202.983 0.454529 176.67 0.454529C176.67 0.454529 112.248 0.454529 93.1693 58.1869C86.1234 79.4633 87.6892 102.566 96.2303 123.286C99.4297 131.163 103.464 138.674 108.263 145.691C124.899 169.741 176.67 235.42 176.67 235.42C176.67 235.42 236.49 153.049 249.658 127.188C263.342 100.309 265.448 62.8732 245.532 35.4529ZM176.146 142.25C165.261 142.25 154.62 139.019 145.57 132.966C136.519 126.912 129.465 118.308 125.299 108.241C121.134 98.1748 120.044 87.0978 122.167 76.4111C124.291 65.7244 129.533 55.908 137.23 48.2034C144.927 40.4987 154.733 35.2517 165.409 33.126C176.085 31.0003 187.151 32.0913 197.207 36.261C207.264 40.4308 215.859 47.492 221.907 56.5517C227.954 65.6115 231.182 76.2628 231.182 87.1589C231.236 94.4087 229.849 101.597 227.103 108.305C224.356 115.014 220.304 121.109 215.183 126.235C210.062 131.362 203.973 135.418 197.271 138.167C190.569 140.917 183.388 142.305 176.146 142.25Z" fill="#F63E85"/>
<path d="M176.092 31.6208C164.719 31.6207 153.625 35.1476 144.336 41.7165C135.047 48.2854 128.019 57.5737 124.219 68.304C128.469 58.9118 135.674 51.1711 144.734 46.2649C153.793 41.3587 164.209 39.557 174.388 41.1352C184.567 42.7134 193.949 47.5846 201.102 55.0044C208.254 62.4241 212.782 71.9841 213.995 82.2232C215.207 92.4623 213.037 102.817 207.816 111.705C202.594 120.593 194.609 127.525 185.081 131.441C175.553 135.358 165.005 136.043 155.051 133.393C145.097 130.743 136.283 124.903 129.957 116.766C135.16 124.762 142.349 131.269 150.819 135.647C159.29 140.026 168.751 142.127 178.277 141.744C187.802 141.361 197.065 138.507 205.158 133.462C213.25 128.418 219.894 121.355 224.44 112.967C228.985 104.578 231.275 95.1515 231.086 85.6105C230.896 76.0695 228.234 66.7414 223.36 58.5402C218.485 50.339 211.566 43.5461 203.28 38.8271C194.994 34.1081 185.625 31.6248 176.092 31.6208Z" fill="#E8505B"/>
<path opacity="0.4" d="M176.092 31.6208C164.719 31.6207 153.625 35.1476 144.336 41.7165C135.047 48.2854 128.019 57.5737 124.219 68.304C128.469 58.9118 135.674 51.1711 144.734 46.2649C153.793 41.3587 164.209 39.557 174.388 41.1352C184.567 42.7134 193.949 47.5846 201.102 55.0044C208.254 62.4241 212.782 71.9841 213.995 82.2232C215.207 92.4623 213.037 102.817 207.816 111.705C202.594 120.593 194.609 127.525 185.081 131.441C175.553 135.358 165.005 136.043 155.051 133.393C145.097 130.743 136.283 124.903 129.957 116.766C135.16 124.762 142.349 131.269 150.819 135.647C159.29 140.026 168.751 142.127 178.277 141.744C187.802 141.361 197.065 138.507 205.158 133.462C213.25 128.418 219.894 121.355 224.44 112.967C228.985 104.578 231.275 95.1515 231.086 85.6105C230.896 76.0695 228.234 66.7414 223.36 58.5402C218.485 50.339 211.566 43.5461 203.28 38.8271C194.994 34.1081 185.625 31.6248 176.092 31.6208Z" fill="black"/>
<path d="M92.9279 174.749L78.7344 203.415L82.9698 203.58L70.937 226.369H77.2626L67.3984 246.611H122.505L110.378 226.369L116.187 226.11L104.561 203.337L108.859 203.086L92.9279 174.749Z" fill="#CBC5EA"/>
<path d="M95.3303 208.007C95.4477 208.007 95.3303 220.154 95.1424 235.13C94.9545 250.106 94.6492 262.245 94.5396 262.245C94.43 262.245 94.5396 250.098 94.7353 235.122C94.931 220.146 95.2207 208.007 95.3303 208.007Z" fill="#263238"/>
<path d="M102.087 215.382C101.87 215.842 101.582 216.265 101.233 216.636C100.46 217.577 99.634 218.475 98.7594 219.323C97.7574 220.334 96.8492 221.236 96.2151 221.917C95.9009 222.311 95.5438 222.669 95.1504 222.983C95.3662 222.524 95.6514 222.101 95.9959 221.729C96.7736 220.791 97.5994 219.894 98.4698 219.041C99.4797 218.03 100.388 217.129 101.022 216.447C101.336 216.054 101.693 215.696 102.087 215.382Z" fill="#263238"/>
<path d="M95.1981 223.281C94.0821 222.656 93.0328 221.918 92.0666 221.079C91.0107 220.339 90.0347 219.49 89.1543 218.548C90.2708 219.172 91.3201 219.91 92.2858 220.75C93.343 221.488 94.3192 222.337 95.1981 223.281Z" fill="#263238"/>
<path d="M94.8211 237.348C93.5909 236.476 92.4121 235.534 91.2904 234.526C90.081 233.629 88.9231 232.663 87.8223 231.635C89.1638 232.341 90.415 233.206 91.5487 234.213C92.7648 235.118 93.864 236.171 94.8211 237.348Z" fill="#263238"/>
<path d="M102.673 228.649C102.775 228.727 101.162 230.828 98.8919 233.139L96.0344 236.133C95.6731 236.579 95.2664 236.986 94.821 237.348C94.7192 237.269 96.3319 235.169 98.6022 232.857L101.46 229.872C101.822 229.424 102.229 229.015 102.673 228.649Z" fill="#263238"/>
</svg>
