<svg width="100%" height="100%" viewBox="0 0 375 812" fill="none" xmlns="http://www.w3.org/2000/svg">
<g clip-path="url(#clip0)">
<path fill-rule="evenodd" clip-rule="evenodd" d="M375.167 -91.6667C433.983 -91.6667 481.667 -43.985 481.667 14.8333C481.667 73.6517 433.983 121.333 375.167 121.333C316.35 121.333 268.667 73.6517 268.667 14.8333C268.667 -43.985 316.348 -91.6667 375.167 -91.6667ZM375.333 -30.6667C384.233 -30.6667 392.934 -28.0275 400.334 -23.0828C407.734 -18.1382 413.502 -11.1101 416.908 -2.88744C420.314 5.33524 421.205 14.3832 419.469 23.1124C417.732 31.8415 413.446 39.8598 407.153 46.1531C400.86 52.4465 392.841 56.7323 384.112 58.4687C375.383 60.205 366.335 59.3138 358.113 55.9079C349.89 52.502 342.862 46.7342 337.917 39.334C332.972 31.9338 330.333 23.2335 330.333 14.3333C330.333 2.39857 335.074 -9.04735 343.513 -17.4865C351.953 -25.9256 363.399 -30.6667 375.333 -30.6667Z" fill="#FD6C9E"/>
<path fill-rule="evenodd" clip-rule="evenodd" d="M0.166626 47.3333C58.985 47.3333 106.667 95.015 106.667 153.833C106.667 212.652 58.985 260.333 0.166626 260.333C-58.6517 260.333 -106.333 212.652 -106.333 153.833C-106.333 95.015 -58.6517 47.3333 0.166626 47.3333ZM0.333298 108.333C9.23345 108.333 17.9337 110.973 25.334 115.917C32.7342 120.862 38.5019 127.89 41.9079 136.113C45.3138 144.335 46.205 153.383 44.4686 162.112C42.7323 170.842 38.4465 178.86 32.1531 185.153C25.8597 191.446 17.8415 195.732 9.11236 197.469C0.383217 199.205 -8.66479 198.314 -16.8875 194.908C-25.1101 191.502 -32.1382 185.734 -37.0828 178.334C-42.0275 170.934 -44.6667 162.233 -44.6667 153.333C-44.6667 141.399 -39.9256 129.953 -31.4865 121.514C-23.0474 113.074 -11.6014 108.333 0.333298 108.333Z" fill="#FD6C9E"/>
<path fill-rule="evenodd" clip-rule="evenodd" d="M301.833 153.877C336.233 153.877 364.123 181.765 364.123 216.167C364.123 250.568 336.233 278.456 301.833 278.456C267.433 278.456 239.544 250.568 239.544 216.167C239.544 181.765 267.433 153.877 301.833 153.877ZM301.931 189.555C307.136 189.555 312.225 191.098 316.553 193.99C320.881 196.882 324.255 200.993 326.247 205.802C328.239 210.611 328.76 215.903 327.745 221.009C326.729 226.114 324.223 230.804 320.542 234.485C316.861 238.166 312.171 240.673 307.066 241.688C301.96 242.704 296.668 242.183 291.859 240.191C287.05 238.199 282.939 234.825 280.047 230.497C277.155 226.169 275.611 221.08 275.611 215.874C275.611 208.894 278.384 202.2 283.32 197.264C288.256 192.328 294.95 189.555 301.931 189.555Z" fill="#FD6C9E"/>
<path fill-rule="evenodd" clip-rule="evenodd" d="M364.167 749.877C398.567 749.877 426.457 777.767 426.457 812.167C426.457 846.567 398.567 874.457 364.167 874.457C329.767 874.457 301.877 846.567 301.877 812.167C301.877 777.767 329.767 749.877 364.167 749.877ZM364.263 785.553C369.469 785.553 374.558 787.097 378.886 789.989C383.214 792.881 386.588 796.992 388.58 801.801C390.572 806.611 391.093 811.903 390.078 817.008C389.062 822.114 386.555 826.804 382.874 830.484C379.193 834.165 374.504 836.672 369.398 837.688C364.292 838.703 359 838.182 354.191 836.19C349.382 834.198 345.271 830.824 342.379 826.496C339.487 822.168 337.943 817.079 337.943 811.873C337.944 804.893 340.717 798.199 345.653 793.263C350.589 788.327 357.283 785.554 364.263 785.553Z" fill="#FD6C9E"/>
<path fill-rule="evenodd" clip-rule="evenodd" d="M70.4999 260.352C75.5396 260.352 80.4661 261.847 84.6564 264.647C88.8467 267.447 92.1127 271.426 94.0413 276.082C95.9699 280.738 96.4745 285.862 95.4913 290.804C94.5081 295.747 92.0813 300.288 88.5177 303.851C84.9541 307.415 80.4138 309.842 75.471 310.825C70.5282 311.808 65.4048 311.303 60.7488 309.375C56.0927 307.446 52.1131 304.18 49.3132 299.99C46.5134 295.799 45.0189 290.873 45.0189 285.833C45.0189 279.075 47.7035 272.594 52.4821 267.816C57.2607 263.037 63.7419 260.352 70.4999 260.352ZM70.5933 276.593C72.4392 276.593 74.2437 277.14 75.7786 278.166C77.3134 279.192 78.5097 280.649 79.2161 282.355C79.9225 284.06 80.1074 285.937 79.7472 287.747C79.3871 289.558 78.4982 291.221 77.1929 292.526C75.8876 293.831 74.2246 294.72 72.4141 295.08C70.6036 295.44 68.727 295.256 67.0215 294.549C65.3161 293.843 63.8584 292.647 62.8329 291.112C61.8073 289.577 61.2599 287.772 61.2599 285.926C61.2599 283.451 62.2432 281.077 63.9936 279.327C65.7439 277.576 68.1179 276.593 70.5933 276.593Z" fill="#FD6C9E"/>
<path fill-rule="evenodd" clip-rule="evenodd" d="M0.166645 750.02C6.92436 750.02 13.4053 752.705 18.1837 757.483C22.9622 762.261 25.6466 768.742 25.6466 775.5C25.6466 782.258 22.9622 788.739 18.1837 793.517C13.4053 798.296 6.92436 800.98 0.166645 800.98C-6.59107 800.98 -13.072 798.296 -17.8504 793.517C-22.6289 788.739 -25.3134 782.258 -25.3134 775.5C-25.3134 768.742 -22.6289 762.261 -17.8504 757.483C-13.072 752.705 -6.59107 750.02 0.166645 750.02ZM0.259977 766.26C2.10594 766.26 3.91044 766.807 5.4453 767.833C6.98016 768.859 8.17644 770.316 8.88285 772.022C9.58927 773.727 9.7741 775.604 9.41397 777.414C9.05384 779.225 8.16493 780.888 6.85964 782.193C5.55435 783.498 3.89131 784.387 2.08082 784.747C0.270332 785.108 -1.60629 784.923 -3.31173 784.216C-5.01718 783.51 -6.47484 782.314 -7.5004 780.779C-8.52596 779.244 -9.07335 777.439 -9.07335 775.593C-9.07335 773.118 -8.09002 770.744 -6.33969 768.994C-4.58935 767.243 -2.21538 766.26 0.259977 766.26Z" fill="#FD6C9E"/>
<path fill-rule="evenodd" clip-rule="evenodd" d="M94.7946 36.271C91.9803 42.8777 71.9279 57.1223 71.5909 57.3613V57.367C71.5897 57.3662 71.5886 57.3653 71.5876 57.3643L71.5839 57.367C71.5839 57.367 71.5839 57.3627 71.5839 57.3613C71.2469 57.1223 51.1946 42.8777 48.3803 36.271C47.0729 33.2281 46.9679 29.8027 48.0864 26.6854C49.2049 23.5681 51.4637 20.9909 54.4074 19.4733C57.3511 17.9557 60.7607 17.6106 63.9487 18.5076C67.1368 19.4046 69.8662 21.477 71.5866 24.307C73.3049 21.4728 76.0347 19.3961 79.2247 18.4964C82.4147 17.5967 85.8272 17.941 88.7732 19.4597C91.7192 20.9784 93.9793 23.5584 95.0969 26.6787C96.2145 29.7991 96.1065 33.2272 94.7946 36.271ZM94.7946 36.271C91.9803 42.8777 71.9279 57.1223 71.5909 57.3613V57.367C71.5897 57.3662 71.5886 57.3653 71.5876 57.3643L71.5839 57.367C71.5839 57.367 71.5839 57.3627 71.5839 57.3613C71.2469 57.1223 51.1946 42.8777 48.3803 36.271C47.0729 33.2281 46.9679 29.8027 48.0864 26.6854C49.2049 23.5681 51.4637 20.9909 54.4074 19.4733C57.3511 17.9557 60.7607 17.6106 63.9487 18.5076C67.1368 19.4046 69.8662 21.477 71.5866 24.307C73.3049 21.4728 76.0347 19.3961 79.2247 18.4964C82.4147 17.5967 85.8272 17.941 88.7732 19.4597C91.7192 20.9784 93.9793 23.5584 95.0969 26.6787C96.2145 29.7991 96.1065 33.2272 94.7946 36.271ZM94.7946 36.271C91.9803 42.8777 71.9279 57.1223 71.5909 57.3613V57.367C71.5897 57.3662 71.5886 57.3653 71.5876 57.3643L71.5839 57.367C71.5839 57.367 71.5839 57.3627 71.5839 57.3613C71.2469 57.1223 51.1946 42.8777 48.3803 36.271C47.0729 33.2281 46.9679 29.8027 48.0864 26.6854C49.2049 23.5681 51.4637 20.9909 54.4074 19.4733C57.3511 17.9557 60.7607 17.6106 63.9487 18.5076C67.1368 19.4046 69.8662 21.477 71.5866 24.307C73.3049 21.4728 76.0347 19.3961 79.2247 18.4964C82.4147 17.5967 85.8272 17.941 88.7732 19.4597C91.7192 20.9784 93.9793 23.5584 95.0969 26.6787C96.2145 29.7991 96.1065 33.2272 94.7946 36.271Z" fill="#FD6C9E"/>
<path fill-rule="evenodd" clip-rule="evenodd" d="M291.795 119.938C288.98 126.544 268.928 140.789 268.591 141.028V141.034C268.59 141.033 268.589 141.032 268.588 141.031L268.584 141.034C268.584 141.034 268.584 141.029 268.584 141.028C268.247 140.789 248.195 126.544 245.38 119.938C244.069 116.894 243.962 113.466 245.08 110.346C246.197 107.226 248.457 104.647 251.403 103.128C254.349 101.61 257.761 101.266 260.951 102.165C264.14 103.064 266.87 105.14 268.589 107.974C270.309 105.143 273.038 103.07 276.226 102.173C279.415 101.275 282.825 101.62 285.769 103.138C288.713 104.656 290.972 107.233 292.09 110.351C293.208 113.469 293.103 116.895 291.795 119.938ZM291.795 119.938C288.98 126.544 268.928 140.789 268.591 141.028V141.034C268.59 141.033 268.589 141.032 268.588 141.031L268.584 141.034C268.584 141.034 268.584 141.029 268.584 141.028C268.247 140.789 248.195 126.544 245.38 119.938C244.069 116.894 243.962 113.466 245.08 110.346C246.197 107.226 248.457 104.647 251.403 103.128C254.349 101.61 257.761 101.266 260.951 102.165C264.14 103.064 266.87 105.14 268.589 107.974C270.309 105.143 273.038 103.07 276.226 102.173C279.415 101.275 282.825 101.62 285.769 103.138C288.713 104.656 290.972 107.233 292.09 110.351C293.208 113.469 293.103 116.895 291.795 119.938ZM291.795 119.938C288.98 126.544 268.928 140.789 268.591 141.028V141.034C268.59 141.033 268.589 141.032 268.588 141.031L268.584 141.034C268.584 141.034 268.584 141.029 268.584 141.028C268.247 140.789 248.195 126.544 245.38 119.938C244.069 116.894 243.962 113.466 245.08 110.346C246.197 107.226 248.457 104.647 251.403 103.128C254.349 101.61 257.761 101.266 260.951 102.165C264.14 103.064 266.87 105.14 268.589 107.974C270.309 105.143 273.038 103.07 276.226 102.173C279.415 101.275 282.825 101.62 285.769 103.138C288.713 104.656 290.972 107.233 292.09 110.351C293.208 113.469 293.103 116.895 291.795 119.938Z" fill="#FD6C9E"/>
</g>
<defs>
<clipPath id="clip0">
<rect width="375" height="812" fill="white"/>
</clipPath>
</defs>
</svg>
