<svg id="Capa_1" data-name="Capa 1" xmlns="http://www.w3.org/2000/svg" viewBox="0 0 1080 1080">
    <defs>
        <style>.cls-1{fill: #fff;}.cls-2{fill: #2e164b;}</style>
    </defs>
    <title>Llamada</title>
    <circle class="cls-1" cx="540" cy="540" r="537.47"/>
    <path class="cls-2" d="M764.62,252.65c-11.65,2.52-22.84,6.08-32.16,14-1.31,1.11-2.69,2.15-3.9,3.36-26.41,26.38-52.92,52.64-79.13,79.2-19.48,19.72-22.87,46.84-9.16,69.4a49.32,49.32,0,0,0,26.12,21.35c16.19,5.83,28.7,15.73,35.67,31.86a49,49,0,0,1,2.27,33c-7.87,29.56-24.11,54.34-43.87,77.06-23.69,27.25-50.79,50.35-83.42,66.34-13.62,6.67-27.65,12.5-43.39,10.31-20.8-2.9-36.68-13-44.86-32.88-5.36-13-11.88-24.72-24.53-32.12-20.55-12-46.47-10.48-64.09,5.57-16.11,14.68-31.25,30.43-46.61,45.91-14,14.12-29,27.38-41.81,42.59-16.17,19.15-16.83,48.35-2.4,68.85a88.55,88.55,0,0,0,9.94,11.84c15.63,15.5,31.5,30.77,46.62,46.75,16.14,17.05,36.08,24.49,58.91,25.46,24.45,1,47.88-4.42,70.8-12.17,45.14-15.27,85.88-39,124.43-66.56A808.33,808.33,0,0,0,788.26,600c35.53-45.62,66-94.32,84.75-149.46,8.18-24,13.7-48.56,12.41-74.22-1.13-22.46-8.47-42-25.21-57.83-14-13.26-27.68-27-41-41-11.73-12.32-24.43-22.51-42-24.83Z"/>
    <path class="cls-2" d="M188.8,491.22l18.1-26.38q17.91,17.93,40.44,17.92c8.67,0,16-3.66,16-10.41q0-6.64-11.55-11l-12.71-4.24c-7.9-2.89-14.06-5.2-18.11-7.32-15.59-8.29-23.49-20.61-23.49-37,0-12.53,5-23.12,14.83-31.4s22.53-12.52,38.13-12.52c19.45,0,36.21,6,50.66,17.92l-16.76,27.34c-8.48-6.94-22.54-11.75-33.32-11.75-9.82,0-15.21,4.05-15.21,9.25,0,4.23,3.85,7.7,11.36,10.59l12.52,4.62c7.12,2.51,12.71,4.62,16.37,6.17,18.1,7.7,27.15,20.21,27.15,37.36,0,13.29-5.2,24.07-15.41,32.73q-15.31,12.72-41,12.71C223.08,515.87,203.62,507.59,188.8,491.22Z"/>
    <path class="cls-2" d="M336.73,494.5c-14.07-14.06-21.19-31.59-21.19-52.19s7.12-38.13,21.37-52.39,32-21.37,53-21.37q31.78,0,53.16,21.37c14.24,14.26,21.37,31.78,21.37,52.39S457.28,480.25,443,494.5c-14.07,14.06-31.79,21.19-53,21.19C368.69,515.69,351,508.56,336.73,494.5Zm79.73-25.23c7.12-7.12,10.78-16.17,10.78-27.15-.19-11-3.85-20-11.17-27.16a35.93,35.93,0,0,0-26.19-10.78,35.48,35.48,0,0,0-26.39,11c-7.12,7.12-10.78,16.17-10.78,27,0,11,3.66,20,10.78,27.15a37.9,37.9,0,0,0,53,0Z"/>
    <path class="cls-2" d="M472,491.22l18.11-26.38Q508,482.77,530.5,482.76c8.66,0,16-3.66,16-10.41q0-6.64-11.55-11l-12.71-4.24c-7.9-2.89-14.06-5.2-18.1-7.32-15.61-8.29-23.5-20.61-23.5-37,0-12.53,5-23.12,14.83-31.4s22.53-12.52,38.13-12.52c19.45,0,36.2,6,50.65,17.92l-16.76,27.34c-8.46-6.94-22.53-11.75-33.31-11.75-9.82,0-15.22,4.05-15.22,9.25,0,4.23,3.85,7.7,11.37,10.59l12.51,4.62c7.13,2.51,12.72,4.62,16.37,6.17,18.11,7.7,27.16,20.21,27.16,37.36,0,13.29-5.2,24.07-15.41,32.73q-15.3,12.72-41,12.71C506.23,515.87,486.78,507.59,472,491.22Z"/>
</svg>