<?xml version="1.0" encoding="utf-8"?>
<!-- Generator: Adobe Illustrator 24.0.2, SVG Export Plug-In . SVG Version: 6.00 Build 0)  -->
<svg version="1.1" id="Capa_1" xmlns="http://www.w3.org/2000/svg" xmlns:xlink="http://www.w3.org/1999/xlink" x="0px" y="0px"
	 viewBox="0 0 540 445" style="enable-background:new 0 0 540 445;" xml:space="preserve">
<style type="text/css">
	.st0{fill:#D2C4F3;}
	.st1{fill:#FFFFFF;}
	.st2{fill:#FD3468;}
	.st3{fill:#BBB1DE;}
	.st4{clip-path:url(#SVGID_2_);}
	.st5{fill:#D73468;}
	.st6{fill:#CCBEED;}
	.st7{clip-path:url(#SVGID_4_);}
	.st8{clip-path:url(#SVGID_4_);fill:#CCBEED;}
</style>
<g>
	<circle class="st2" cx="270" cy="222.5" r="175.27"/>
	<g>
		<path class="st3" d="M270,422.23c-110.13,0-199.73-89.6-199.73-199.73c0-110.13,89.6-199.73,199.73-199.73
			c110.13,0,199.73,89.6,199.73,199.73C469.73,332.63,380.13,422.23,270,422.23z M270,29.49c-106.42,0-193.01,86.58-193.01,193.01
			S163.58,415.51,270,415.51c106.42,0,193.01-86.58,193.01-193.01S376.42,29.49,270,29.49z"/>
	</g>
	<g>
		<path class="st3" d="M266.61,104.34c2.99,0,5.97,0,8.96,0c0.39,0.13,0.78,0.34,1.18,0.37c6.35,0.46,11.8,2.94,16.36,7.35
			c1.05,1.02,2.14,1.39,3.59,1.38c7.96-0.04,14.05,3.4,18.36,10.06c4.67,7.21,6.55,15.34,7.86,23.65
			c1.59,10.14,1.59,20.38,1.8,30.61c0.23,11.11,1.48,22.11,4.65,32.81c2.35,7.95,5.46,15.56,11.29,21.71
			c3.17,3.34,2.78,6.45-1.29,8.5c-9.38,4.73-19.38,7.65-29.62,9.79c-1.94,0.41-4.7,0.21-5.59,1.4c-1.03,1.39,0.65,3.79,0.93,5.8
			c0.21,1.53,1.02,2.22,2.53,2.58c10.48,2.55,20.93,5.2,31.41,7.78c23.41,5.77,39.41,24.99,40.14,48.23
			c0.15,4.7-1.42,6.33-6.13,6.33c-68.66,0-137.32-0.01-205.98,0.03c-2.84,0-4.97-0.79-6.2-3.44c0-1.85,0-3.7,0-5.54
			c0.15-0.68,0.36-1.36,0.43-2.05c2.11-19.27,16.64-36.89,35.26-42.22c10.5-3.01,21.09-5.8,31.78-7.98
			c4.98-1.02,7.31-3.16,7.76-8.05c0.14-1.45-0.05-1.79-1.41-2.02c-6.51-1.13-12.93-2.64-19.23-4.64
			c-5.36-1.69-10.58-3.73-15.53-6.39c-2.94-1.59-3.65-4.91-1.43-7.14c6.37-6.41,9.75-14.4,12.23-22.84
			c3.7-12.59,4.66-25.53,4.73-38.57c0.05-10.03,1.56-19.82,5.28-29.17c6.85-17.21,18.74-29.35,36.25-35.82
			C260.11,105.69,263.42,105.28,266.61,104.34z"/>
	</g>
</g>
</svg>
