<?xml version="1.0" encoding="UTF-8"?>
<!-- Generator: Adobe Illustrator 24.0.2, SVG Export Plug-In . SVG Version: 6.00 Build 0)  -->
<svg enable-background="new 0 0 540 445" inkscape:version="1.2.2 (732a01da63, 2022-12-09, custom)" sodipodi:docname="ICON-04.svg" version="1.1" viewBox="0 0 540 445" xml:space="preserve" xmlns="http://www.w3.org/2000/svg" xmlns:inkscape="http://www.inkscape.org/namespaces/inkscape" xmlns:sodipodi="http://sodipodi.sourceforge.net/DTD/sodipodi-0.dtd"><sodipodi:namedview bordercolor="#000000" borderopacity="0.25" inkscape:current-layer="Capa_1" inkscape:cx="206.37681" inkscape:cy="169.44005" inkscape:deskcolor="#d1d1d1" inkscape:pagecheckerboard="0" inkscape:pageopacity="0.0" inkscape:showpageshadow="2" inkscape:window-height="962" inkscape:window-maximized="0" inkscape:window-width="960" inkscape:window-x="0" inkscape:window-y="27" inkscape:zoom="0.85280899" pagecolor="#ffffff" showgrid="false"/>
<style type="text/css">
	.st0{fill:#D2C4F3;}
	.st1{fill:#FFFFFF;}
	.st2{fill:#FD3468;}
	.st3{fill:#BBB1DE;}
	.st4{clip-path:url(#SVGID_2_);}
	.st5{fill:#D73468;}
	.st6{fill:#CCBEED;}
	.st7{clip-path:url(#SVGID_4_);}
	.st8{clip-path:url(#SVGID_4_);fill:#CCBEED;}
</style>

	<circle class="st2" cx="270" cy="222.5" r="175.27"/>
	
		<path class="st3" d="m270 422.23c-110.13 0-199.73-89.6-199.73-199.73s89.6-199.73 199.73-199.73 199.73 89.6 199.73 199.73-89.6 199.73-199.73 199.73zm0-392.74c-106.42 0-193.01 86.58-193.01 193.01s86.59 193.01 193.01 193.01 193.01-86.58 193.01-193.01-86.59-193.01-193.01-193.01z"/>
	
	
		<path class="st3" d="m266.61 104.34h8.96c0.39 0.13 0.78 0.34 1.18 0.37 6.35 0.46 11.8 2.94 16.36 7.35 1.05 1.02 2.14 1.39 3.59 1.38 7.96-0.04 14.05 3.4 18.36 10.06 4.67 7.21 6.55 15.34 7.86 23.65 1.59 10.14 1.59 20.38 1.8 30.61 0.23 11.11 1.48 22.11 4.65 32.81 2.35 7.95 5.46 15.56 11.29 21.71 3.17 3.34 2.78 6.45-1.29 8.5-9.38 4.73-19.38 7.65-29.62 9.79-1.94 0.41-4.7 0.21-5.59 1.4-1.03 1.39 0.65 3.79 0.93 5.8 0.21 1.53 1.02 2.22 2.53 2.58 10.48 2.55 20.93 5.2 31.41 7.78 23.41 5.77 39.41 24.99 40.14 48.23 0.15 4.7-1.42 6.33-6.13 6.33-68.66 0-137.32-0.01-205.98 0.03-2.84 0-4.97-0.79-6.2-3.44v-5.54c0.15-0.68 0.36-1.36 0.43-2.05 2.11-19.27 16.64-36.89 35.26-42.22 10.5-3.01 21.09-5.8 31.78-7.98 4.98-1.02 7.31-3.16 7.76-8.05 0.14-1.45-0.05-1.79-1.41-2.02-6.51-1.13-12.93-2.64-19.23-4.64-5.36-1.69-10.58-3.73-15.53-6.39-2.94-1.59-3.65-4.91-1.43-7.14 6.37-6.41 9.75-14.4 12.23-22.84 3.7-12.59 4.66-25.53 4.73-38.57 0.05-10.03 1.56-19.82 5.28-29.17 6.85-17.21 18.74-29.35 36.25-35.82 3.13-1.16 6.44-1.57 9.63-2.51z"/>
	

<ellipse cx="271.63" cy="235.45" rx="172.94" ry="144.65" fill="#fd3468" stroke-width="1.204"/><g transform="matrix(3.3854 0 0 3.3827 143.15 95.751)"><g fill="#d2c3f4"><path class="cls-1" d="m0 40.31v-5.66c0.1-0.42 0.22-0.84 0.28-1.26 2.24-15.9 11.06-26.36 26.11-31.69 2.67-0.95 5.49-1.17 8.25-1.7h5.66c0.37 0.09 0.74 0.24 1.11 0.27 14.82 1.46 27.48 11.91 31.89 26.28 0.81 2.65 1.08 5.4 1.64 8.09v5.66c-0.1 0.42-0.24 0.84-0.28 1.27-1.51 14.71-12.09 27.48-26.26 31.74-2.66 0.8-5.39 1.11-8.1 1.63h-5.66c-0.37-0.09-0.74-0.22-1.12-0.27-15.59-2.14-26.07-10.63-31.57-25.34-1.09-2.92-1.39-6-1.95-9.03zm65.15-2.67c0.02-15.24-12.29-27.73-27.44-27.86-15.15-0.12-27.81 12.29-27.92 27.37-0.11 15.35 12.31 27.97 27.61 28.03 15.1 0.06 27.74-12.48 27.76-27.54z"/><path class="cls-1" d="m37.68 13.3c13.47 0.1 24.07 10.99 23.96 24.58-0.11 13.28-11.1 23.88-24.63 23.76-13.31-0.12-23.84-11.14-23.71-24.84 0.12-12.95 11.17-23.6 24.38-23.5zm-19.02 20.6c-0.83-0.11-0.62 0.56-0.67 0.99-0.84 6.54 1.21 12.07 5.8 16.74 0.75 0.76 1.11 0.76 1.67-0.19 1.95-3.28 3.97-6.51 5.96-9.76 0.86-1.4-0.08-3.84-1.67-4.34-3.42-1.08-6.85-2.14-10.27-3.21-0.26-0.08-0.53-0.15-0.82-0.23zm21.6-15.96c-0.55-0.16-0.63 0.37-0.62 1.09 0.02 2.77 0.05 5.55 0 8.32-0.04 2.05-0.32 4.12 2.23 5.02 0.5 0.18 0.66 0.92 1.51 0.68 3.77-1.08 7.57-2.07 11.38-3.04 0.74-0.19 0.74-0.51 0.47-1.05-3.07-6.04-7.95-9.65-14.96-11.02zm-5.06 6.66c0-1.83-0.05-3.67 0.02-5.49 0.04-1.05-0.41-1.24-1.3-1.05-6.22 1.33-10.88 4.74-13.94 10.34-0.42 0.78-0.37 1.12 0.55 1.39 3.61 1.07 7.19 2.21 10.78 3.34 0.45 0.14 0.77 0.16 1.2-0.18 2.68-2.14 2.69-2.12 2.69-5.69v-2.66zm21.99 12.67c-0.02-0.31-0.11-0.8-0.1-1.3 0.03-1.56-0.51-1.92-2.08-1.42-3.27 1.04-6.61 1.83-9.92 2.73-1.39 0.38-2.37 2.83-1.6 4.06 2.08 3.34 4.22 6.64 6.27 9.99 0.52 0.85 0.83 0.87 1.52 0.17 3.85-3.9 5.74-8.6 5.91-14.23zm-19.86 19.95c2.89-0.15 5.7-0.62 8.36-1.86 0.76-0.36 0.98-0.61 0.45-1.43-2.12-3.24-4.17-6.52-6.2-9.82-0.42-0.69-0.87-0.87-1.63-0.68-0.47 0.12-1.02 0.15-1.47 0.03-0.85-0.23-1.29 0.06-1.73 0.79-1.96 3.28-3.94 6.54-6 9.75-0.55 0.86-0.37 1.21 0.47 1.56 2.48 1.01 5.07 1.55 7.74 1.66zm0.15-23.58c-1.98 0-3.5 1.47-3.51 3.41 0 1.87 1.61 3.52 3.46 3.53 1.86 0.01 3.5-1.62 3.51-3.48 0-1.94-1.5-3.45-3.46-3.46z"/></g></g></svg>
