<?xml version="1.0" encoding="utf-8"?>
<!-- Generator: Adobe Illustrator 24.0.2, SVG Export Plug-In . SVG Version: 6.00 Build 0)  -->
<svg version="1.1" id="Capa_1" xmlns="http://www.w3.org/2000/svg" xmlns:xlink="http://www.w3.org/1999/xlink" x="0px" y="0px"
	 viewBox="0 0 540 622" style="enable-background:new 0 0 540 622;" xml:space="preserve">
<style type="text/css">
	.st0{fill:#D2C4F3;}
	.st1{fill:#FFFFFF;}
	.st2{fill:#FD3468;}
	.st3{fill:#BBB1DE;}
	.st4{clip-path:url(#SVGID_2_);}
	.st5{fill:#D73468;}
	.st6{fill:#CCBEED;}
	.st7{clip-path:url(#SVGID_4_);}
	.st8{clip-path:url(#SVGID_4_);fill:#CCBEED;}
</style>
<g>
	<g>
		<g>
			<g>
				<path class="st0" d="M270.22,11.5c117.18-0.06,212.43,95.82,210.68,212.52c-0.48,31.88-11.95,61.14-24.47,89.84
					c-30,68.77-69.86,131.92-111.46,194.05c-22.36,33.4-45.78,66.05-69.77,98.29c-3.62,4.87-5.66,6.38-10.08,0.4
					c-59.92-80.94-116.92-163.76-163.06-253.53c-17.71-34.46-34.67-69.58-40.67-108.19c-8.21-52.85,6.04-101.05,36.43-144.35
					C137.63,43.77,200.95,11.54,270.22,11.5z"/>
			</g>
		</g>
	</g>
	<circle class="st1" cx="270" cy="211.02" r="101.88"/>
</g>
</svg>
