<?xml version="1.0" encoding="utf-8"?>
<!-- Generator: Adobe Illustrator 24.0.2, SVG Export Plug-In . SVG Version: 6.00 Build 0)  -->
<svg version="1.1" id="Capa_1" xmlns="http://www.w3.org/2000/svg" xmlns:xlink="http://www.w3.org/1999/xlink" x="0px" y="0px"
	 viewBox="0 0 1080 622" style="enable-background:new 0 0 1080 622;" xml:space="preserve">
<style type="text/css">
	.st0{fill:#D2C4F3;}
	.st1{fill:#FFFFFF;}
	.st2{fill:#FD3468;}
	.st3{fill:#BBB1DE;}
	.st4{clip-path:url(#SVGID_2_);}
	.st5{fill:#D73468;}
	.st6{fill:#CCBEED;}
	.st7{clip-path:url(#SVGID_4_);}
	.st8{clip-path:url(#SVGID_4_);fill:#CCBEED;}
</style>
<g>
	<g>
		<g>
			<g>
				<g>
					<g>
						<path class="st0" d="M150.37,39.08c2.51,0.62,5.12,0.99,7.52,1.92c10.8,4.15,17.28,14.68,16.14,26.17
							c-0.42,4.25-2.32,8.07-4.16,11.86c-5.61,11.57-12.94,22.06-20.49,32.41c-0.6,0.82-1.05,1.04-1.75,0.08
							c-8.31-11.29-16.21-22.83-22.06-35.63c-3.16-6.91-4.09-13.98-0.79-21.11c4.05-8.77,10.79-14.07,20.48-15.37
							c0.46-0.06,0.91-0.21,1.36-0.32C147.87,39.08,149.12,39.08,150.37,39.08z M148.4,52.37c-6.88,0.02-12.47,5.65-12.46,12.54
							c0.01,6.85,5.67,12.58,12.47,12.62c6.82,0.04,12.65-5.78,12.65-12.63C161.06,57.98,155.37,52.35,148.4,52.37z"/>
					</g>
				</g>
			</g>
		</g>
		<path class="st1" d="M870.68,236.01c0,29.3,0,58.61,0,87.91c0,6.43-1.81,8.25-8.15,8.25c-12.13,0-24.26,0.01-36.38-0.01
			c-4.5-0.01-6.56-1.89-7.09-6.41c-0.65-5.47-6.02-7.65-10.7-4.23c-10.1,7.39-21.27,12.37-33.61,14.24
			c-36.32,5.5-71.8-7.06-94-41.89c-9.12-14.3-13.93-30.03-15.33-46.88c-1.54-18.49-0.25-36.69,7.18-53.87
			c12.6-29.14,33.71-48.94,65.22-55.83c25.37-5.55,49.42-2.3,70.76,13.82c2.16,1.63,4.44,2.17,6.92,0.89
			c2.42-1.26,3.49-3.33,3.6-6.05c0.17-3.91,2.32-5.93,6.27-5.93c12.66-0.02,25.32-0.01,37.98-0.01c5.5,0,7.34,1.81,7.34,7.28
			C870.68,176.87,870.68,206.44,870.68,236.01z M772.97,184.88c-22.85,0.19-37.16,8.34-46.61,24.58
			c-6.48,11.13-7.95,23.28-5.84,35.88c5.42,32.42,35.87,49.26,66.15,38.66c21.09-7.38,34.44-31.24,32.11-54.38
			C816.61,208.08,797.25,184.09,772.97,184.88z"/>
		<path class="st1" d="M561.13,255.21c-19.21,0-38.42,0.04-57.62-0.03c-4.37-0.01-7.8,1.5-9.92,5.36
			c-2.21,4.03-1.29,7.78,1.27,11.39c7.55,10.68,18.1,16.5,30.73,18.48c22.69,3.56,44.13-0.65,64.34-11.4
			c7.29-3.88,11.87-2.58,16.06,4.65c3.54,6.12,7.12,12.22,10.64,18.36c3.15,5.49,1.89,10.83-3.42,14.24
			c-16.17,10.38-33.87,16.58-52.88,19.2c-13.83,1.9-27.65,2.01-41.53,0.52c-50.26-5.39-76.94-39.54-84.27-75.99
			c-4.63-23.04-3.6-45.95,6.48-67.5c14.26-30.47,37.95-49.43,71.49-55.03c20.28-3.39,40.48-2.72,59.81,4.86
			c31,12.15,50.27,34.46,56.41,67.53c2.25,12.08,2.53,24.24,1.1,36.44c-0.66,5.6-4.42,8.9-10.28,8.91
			C600.07,255.22,580.6,255.21,561.13,255.21z M532.75,216.1c10,0,20-0.03,30,0.01c4.18,0.02,7.37-1.64,9.42-5.28
			c2.03-3.6,1.53-7.08-0.64-10.5c-8.16-12.87-20.01-19.44-35.05-20.16c-17.46-0.84-31.83,5.24-42.2,19.73
			c-2.42,3.38-3.06,6.96-1.08,10.7c2,3.77,5.23,5.54,9.55,5.51C512.74,216.06,522.74,216.1,532.75,216.1z"/>
		<path class="st1" d="M210.18,238.88c0-29.48,0-58.96,0-88.43c0-5.55,1.95-7.5,7.45-7.5c12.83,0,25.67,0,38.5,0
			c5.05,0,7.2,1.97,7.3,6.93c0.07,3.27,1,5.95,4.18,7.33c3.15,1.37,5.54-0.09,7.89-2.13c11.73-10.2,25.5-15.61,40.9-17.04
			c19.87-1.84,38.1,2.45,54.27,14.51c15.45,11.53,23.91,27.21,26.79,45.96c1.11,7.22,1.56,14.6,1.59,21.92
			c0.16,35.5,0.07,70.99,0.07,106.49c0,6.04-2.1,8.15-8.1,8.15c-13.19,0-26.38,0.01-39.57,0c-4.91,0-7.3-2.41-7.3-7.35
			c-0.01-32.13-0.01-64.27,0-96.4c0-8.23-1.25-16.23-4.87-23.68c-6.26-12.87-16.92-19.3-30.96-19.65
			c-24.32-0.61-41.2,15.05-43.08,39.48c-0.24,3.17-0.39,6.36-0.39,9.54c-0.03,30.01-0.02,60.02-0.02,90.03
			c0,6.14-1.93,8.05-8.11,8.05c-13.1,0-26.2,0.01-39.3,0c-5.13,0-7.27-2.11-7.27-7.21C210.18,298.19,210.18,268.53,210.18,238.88z"
			/>
		<g>
			<g>
				<path class="st1" d="M500.78,452.49c-1.06-7.06-7.23-12.75-14.27-13.09c-7.65-0.38-14.25,4.42-16.05,11.63
					c-0.66,2.63-0.37,5.29-0.49,7.94c-0.04,0.89,0.29,1.05,1.1,1.04c4.8-0.04,9.6-0.02,14.4-0.02c0.81,0,1.61,0,2.42,0
					c4.03,0,8.07,0,12.1,0c0.53,0,1.05,0.1,1-0.75C500.88,457.01,501.12,454.75,500.78,452.49z"/>
				<path class="st1" d="M593.15,459.53c-3.96-30.38-19.37-53.95-44.1-71.49c-19.02-13.49-40.75-18.26-63.77-18.96
					c-7.8,0.88-15.69,1.27-23.38,2.71c-35.51,6.66-60.79,26.89-75.88,59.42c-10.1,21.76-11.58,44.95-6.58,68.17
					c8,37.22,30.25,62.82,66,76.01c19.94,7.36,40.71,7.96,61.58,4.63c26.75-4.27,48.67-16.97,65.35-38.37
					C591.29,517.36,597.07,489.59,593.15,459.53z M534.57,521.69c-0.01,5.19-3.03,9.15-7.81,10.33c-1.06,0.26-2.15,0.31-3.24,0.31
					c-12.71,0-25.42,0-38.13,0c-12.75,0-25.5,0.01-38.25,0c-5.26-0.01-9.28-3.04-10.44-7.83c-0.24-0.98-0.3-1.99-0.3-3
					c0-16.91-0.01-33.81,0.01-50.72c0-6.49,4.3-10.76,10.77-10.77c2.18,0,2.24-0.01,2.16-2.25c-0.2-6.21,0.64-12.21,3.23-17.92
					c6.17-13.62,20.45-22.14,35.37-21.04c17.08,1.26,30.67,13.77,33.31,30.7c0.45,2.88,0.36,5.79,0.37,8.7c0,1.82,0,1.83,1.76,1.81
					c1.25-0.01,2.5,0.04,3.72,0.37c4.55,1.25,7.45,5.19,7.47,10.24c0.02,8.63,0.01,17.27,0.01,25.9
					C534.57,504.91,534.59,513.3,534.57,521.69z"/>
			</g>
			<path class="st1" d="M1048,475.85c0,31.15,0,62.3,0,93.45c0,5.47-2.11,7.59-7.58,7.59c-13.06,0.01-26.11,0.01-39.17,0
				c-4.93,0-6.8-1.68-7.52-6.62c-0.83-5.8-6.23-8.19-10.99-4.71c-18.76,13.74-39.82,17.93-62.65,15.97
				c-44.71-3.84-76.99-38.39-85.64-77.69c-5.33-24.23-5.06-48.46,4.38-71.69c13.5-33.21,37.51-54.78,73.29-61.3
				c25.36-4.62,49.36-0.74,70.47,15.32c2.14,1.63,4.43,2.36,7.03,1.14c2.73-1.28,3.94-3.51,4.15-6.44c0.31-4.37,2.42-6.42,6.76-6.43
				c13.52-0.04,27.04-0.04,40.57,0c4.77,0.01,6.89,2.25,6.89,7.11C1048,412.99,1048,444.42,1048,475.85z M941.08,421.84
				c-18.27,0.07-32.84,7.41-43.05,22.63c-8.57,12.77-10.74,27-7.96,41.97c6.41,34.48,39,50.85,69.89,39.63
				c22.69-8.25,37-34.26,33.22-58.92C989.12,440.63,967.54,421.88,941.08,421.84z"/>
			<path class="st1" d="M716.16,368.12c26.83,0.13,49.73,6.69,69.34,22.97c4.29,3.56,4.7,6.48,1.44,11.03
				c-6.02,8.41-12.05,16.82-18.08,25.22c-3.15,4.4-6.16,4.89-10.64,1.73c-12.73-8.97-26.64-14.42-42.43-14.19
				c-4.61,0.07-9.06,1-13.12,3.35c-8.08,4.67-9.33,14.24-2.67,20.77c3.82,3.75,8.67,5.68,13.59,7.48
				c14.23,5.21,28.59,10.09,42.6,15.84c11.66,4.79,21.95,11.88,29.73,22.1c7.73,10.14,10.95,21.71,10.35,34.31
				c-1.4,29.29-18.35,47.01-44.04,57.6c-16.08,6.63-33.14,7.33-50.3,6.09c-15.4-1.11-30.07-4.93-43.83-12.04
				c-10.02-5.18-18.9-11.92-26.82-19.92c-3.21-3.23-3.36-6.25-0.58-9.93c6.44-8.57,12.92-17.11,19.38-25.66
				c3.44-4.56,6.77-4.91,11.05-1.14c11.17,9.86,23.77,16.97,38.56,19.7c8.3,1.53,16.66,2.25,24.88-0.33
				c2.63-0.82,5.26-2.02,7.5-3.59c7.83-5.46,8.38-15.49,0.85-21.33c-3.83-2.97-8.37-5.25-12.91-7.03
				c-13.51-5.29-27.26-9.94-40.75-15.28c-11.32-4.48-21.33-11.06-28.95-20.8c-9.41-12.03-12.51-25.89-10.95-40.77
				c2.95-28.13,20.84-43.28,46.03-51.65C695.91,369.16,706.89,368.34,716.16,368.12z"/>
			<path class="st1" d="M210.8,478.33c0-31.71,0-63.41,0-95.12c0-0.93-0.06-1.87,0.04-2.8c0.42-3.89,2.76-6.02,6.68-6.02
				c13.8-0.02,27.6-0.01,41.4-0.01c4.93,0,6.93,1.94,7.11,6.85c0.02,0.47-0.01,0.94,0.06,1.4c0.43,2.77,1.74,4.83,4.5,5.87
				c2.91,1.09,5.09-0.07,7.01-2.07c7.41-7.7,16.24-13.07,26.59-15.72c12.37-3.17,24.72-2.76,36.94,0.96
				c3.26,0.99,5.01,3.22,4.79,6.66c-0.49,7.62-1.17,15.23-1.8,22.84c-0.5,6.03-1.02,12.06-1.55,18.09c-0.11,1.2-0.23,2.41-0.43,3.6
				c-0.68,4.01-3.66,6.07-7.69,5.14c-10-2.28-20.03-3.35-30.16-1.01c-16.88,3.9-26.55,15.21-31.62,31.11
				c-2.71,8.49-3.88,17.26-3.9,26.14c-0.06,29.93-0.02,59.87-0.03,89.8c0,6.5-1.86,8.38-8.26,8.38c-13.8,0-27.6,0.01-41.4,0
				c-6.27,0-8.28-2.05-8.28-8.43C210.8,542.12,210.8,510.22,210.8,478.33z"/>
		</g>
		<path class="st1" d="M86.82,201.81c0,39.3,0,78.6,0,117.9c0,9.25-6.03,15.33-15.21,15.34c-8.14,0.01-16.29,0.01-24.43,0
			c-8.79-0.02-14.87-5.91-15.15-14.67c-0.02-0.53-0.01-1.06-0.01-1.59c0-78.16,0.01-156.32-0.02-234.48c0-4.01,0.63-7.75,3.28-10.92
			c2.89-3.46,6.58-5.32,11.09-5.35c8.67-0.05,17.35-0.06,26.02,0c8.13,0.05,14.42,6.41,14.42,14.54
			C86.82,122.32,86.81,162.06,86.82,201.81z"/>
		<path class="st1" d="M121.06,235.79c0-27.7,0-55.4,0-83.1c0-9.74,6.14-15.86,15.91-15.88c7.88-0.01,15.75-0.03,23.63,0.01
			c9,0.04,15.4,6.33,15.4,15.37c0.04,55.84,0.04,111.69,0,167.53c-0.01,9.02-6.46,15.32-15.43,15.34c-8.14,0.01-16.28,0.02-24.42,0
			c-8.65-0.02-15.08-6.41-15.08-15.09C121.04,291.9,121.06,263.85,121.06,235.79z"/>
	</g>
</g>
</svg>
