<?xml version="1.0" encoding="utf-8"?>
<!-- Generator: Adobe Illustrator 24.0.2, SVG Export Plug-In . SVG Version: 6.00 Build 0)  -->
<svg version="1.1" id="Capa_1" xmlns="http://www.w3.org/2000/svg" xmlns:xlink="http://www.w3.org/1999/xlink" x="0px" y="0px"
	 viewBox="0 0 445 540" style="enable-background:new 0 0 445 540;" xml:space="preserve">
<style type="text/css">
	.st0{fill:#D2C4F3;}
	.st1{fill:#FFFFFF;}
	.st2{fill:#FD3468;}
	.st3{fill:#BBB1DE;}
	.st4{clip-path:url(#SVGID_2_);}
	.st5{fill:#D73468;}
	.st6{fill:#CCBEED;}
	.st7{clip-path:url(#SVGID_4_);}
	.st8{clip-path:url(#SVGID_4_);fill:#CCBEED;}
</style>
<g>
	<defs>
		<rect id="SVGID_1_" x="0.86" y="55.38" width="444.14" height="484.62"/>
	</defs>
	<clipPath id="SVGID_2_">
		<use xlink:href="#SVGID_1_"  style="overflow:visible;"/>
	</clipPath>
	<g class="st4">
		<g>
			<g>
				<path class="st5" d="M66.9,520.45c-15.75,0-28.57-12.82-28.57-28.57c0-15.75,12.82-28.57,28.57-28.57
					c15.75,0,28.57,12.82,28.57,28.57C95.47,507.63,82.66,520.45,66.9,520.45z M66.9,479.42c-6.87,0-12.46,5.59-12.46,12.46
					c0,6.87,5.59,12.46,12.46,12.46c6.87,0,12.46-5.59,12.46-12.46C79.36,485.01,73.77,479.42,66.9,479.42z"/>
				<circle class="st5" cx="79.14" cy="441.5" r="8.8"/>
			</g>
			<g>
				<g>
					<g>
						<path class="st6" d="M298.69,359.46c6.66-5.78,13.71-11.25,20.97-16.25c1.7-1.17,2.61-3.06,2.61-4.98
							c0-1.18-0.35-2.38-1.07-3.43c-1.9-2.75-5.66-3.44-8.41-1.54c-7.62,5.26-15.03,11-22.02,17.07c-2.52,2.19-2.79,6.01-0.61,8.53
							C292.35,361.37,296.17,361.64,298.69,359.46z"/>
						<path class="st2" d="M335.2,366.85c1.83,2.8,5.57,3.58,8.37,1.76c7.35-4.8,15.09-9.16,22.99-12.97
							c2.16-1.04,3.42-3.2,3.42-5.45c0-0.88-0.19-1.78-0.6-2.62c-1.45-3.01-5.07-4.27-8.07-2.82c-8.37,4.03-16.56,8.66-24.35,13.74
							C334.17,360.3,333.38,364.05,335.2,366.85z"/>
						<path class="st6" d="M334.09,326.91c1.58,2.94,5.25,4.05,8.19,2.46c7.77-4.17,15.85-7.95,24.01-11.23
							c2.36-0.95,3.8-3.22,3.8-5.62c0-0.75-0.14-1.51-0.44-2.25c-1.24-3.1-4.77-4.61-7.87-3.36c-8.58,3.44-17.07,7.41-25.24,11.8
							C333.61,320.3,332.5,323.97,334.09,326.91z"/>
						<path class="st2" d="M285.72,310.27c-2.69,1.99-3.25,5.77-1.27,8.46c1.99,2.69,5.77,3.26,8.46,1.27
							c7.12-5.26,14.57-10.23,22.15-14.76c1.89-1.13,2.94-3.14,2.94-5.2c0-1.06-0.28-2.13-0.86-3.1c-1.71-2.87-5.43-3.8-8.3-2.08
							C300.93,299.6,293.15,304.78,285.72,310.27z"/>
						<path class="st6" d="M383.98,305.44c0.89,3.22,4.22,5.11,7.44,4.22c8.48-2.34,17.2-4.24,25.92-5.62
							c2.98-0.47,5.1-3.05,5.1-5.97c0-0.32-0.03-0.64-0.08-0.96c-0.53-3.3-3.63-5.55-6.93-5.02c-9.16,1.46-18.32,3.45-27.24,5.91
							C384.98,298.89,383.09,302.22,383.98,305.44z"/>
						<path class="st6" d="M226.74,368.82c-5.54,7.39-10.79,15.13-15.58,23.01c-1.74,2.86-0.83,6.58,2.02,8.31
							c2.85,1.74,6.57,0.83,8.31-2.02c4.59-7.55,9.61-14.97,14.92-22.04c0.82-1.09,1.21-2.36,1.21-3.63c0-1.84-0.83-3.65-2.42-4.84
							C232.54,365.61,228.75,366.15,226.74,368.82z"/>
						<path class="st6" d="M277.13,416.65c-5.31,7.64-10.16,15.71-14.44,23.97c-1.53,2.97-0.37,6.62,2.59,8.15
							c2.97,1.53,6.62,0.37,8.15-2.59c4.03-7.8,8.62-15.41,13.63-22.63c0.73-1.05,1.08-2.25,1.08-3.44c0-1.92-0.91-3.8-2.6-4.98
							C282.8,413.22,279.03,413.9,277.13,416.65z"/>
						<path class="st6" d="M383.35,417.68c1.57,2.95,5.23,4.07,8.18,2.49c7.66-4.08,15.74-7.43,24.02-9.96
							c2.61-0.8,4.28-3.19,4.28-5.78c0-0.58-0.09-1.18-0.26-1.77c-0.98-3.19-4.36-4.99-7.55-4.02c-9.02,2.76-17.83,6.41-26.18,10.85
							C382.9,411.07,381.78,414.73,383.35,417.68z"/>
						<path class="st6" d="M346.14,409.48c6.7-5.61,13.89-10.74,21.37-15.25c1.88-1.14,2.93-3.14,2.93-5.18
							c0-1.06-0.28-2.14-0.87-3.12c-1.72-2.86-5.44-3.78-8.3-2.06c-8.01,4.83-15.7,10.32-22.88,16.32c-2.57,2.15-2.9,5.96-0.76,8.52
							C339.77,411.28,343.58,411.62,346.14,409.48z"/>
						<path class="st6" d="M303.5,402.85c5.89-6.51,12.26-12.71,18.94-18.41c1.4-1.2,2.12-2.89,2.12-4.6c0-1.39-0.48-2.79-1.45-3.93
							c-2.17-2.54-5.99-2.84-8.53-0.67c-7.07,6.04-13.82,12.6-20.05,19.5c-2.24,2.48-2.05,6.3,0.43,8.54
							C297.43,405.52,301.25,405.33,303.5,402.85z"/>
						<path class="st6" d="M455.22,495.52C455.22,495.52,455.22,495.52,455.22,495.52c-7.01,0-13.72,1.59-19.95,4.72
							c-2.99,1.5-4.19,5.14-2.69,8.12c1.5,2.99,5.14,4.19,8.12,2.69c4.53-2.27,9.41-3.43,14.52-3.43c0,0,0,0,0,0V495.52z"/>
						<path class="st6" d="M383.07,379.15c1.26,3.09,4.79,4.58,7.89,3.31c8.09-3.3,16.5-5.99,24.99-8c2.78-0.66,4.66-3.14,4.66-5.88
							c0-0.46-0.05-0.93-0.16-1.4c-0.77-3.25-4.03-5.26-7.28-4.49c-9.11,2.15-18.12,5.04-26.78,8.58
							C383.29,372.53,381.8,376.06,383.07,379.15z"/>
						<path class="st6" d="M333.36,281.77c-3.02,1.43-4.31,5.04-2.88,8.05c1.43,3.02,5.03,4.31,8.05,2.88
							c8-3.78,16.27-7.2,24.58-10.18c2.47-0.88,4.01-3.21,4.01-5.7c0-0.68-0.11-1.36-0.35-2.04c-1.13-3.15-4.59-4.78-7.73-3.66
							C350.35,274.25,341.71,277.82,333.36,281.77z"/>
						<path class="st6" d="M434.8,261.25c0.17,3.34,3.01,5.9,6.35,5.74c4.66-0.24,9.4-0.36,14.06-0.36c0,0,0,0,0,0v-12.1
							c0,0,0,0,0,0c-4.87,0-9.81,0.13-14.68,0.37C437.2,255.07,434.65,257.91,434.8,261.25z"/>
						<path class="st6" d="M270.75,369.71c-6.29,6.81-12.26,14.04-17.75,21.49c-1.98,2.69-1.41,6.48,1.28,8.46
							c2.69,1.98,6.48,1.41,8.46-1.28c5.23-7.09,10.91-13.98,16.9-20.46c1.07-1.16,1.61-2.63,1.61-4.1c0-1.63-0.65-3.25-1.94-4.44
							C276.85,367.11,273.02,367.26,270.75,369.71z"/>
						<path class="st2" d="M237.73,414.52c-4.64,8.03-8.88,16.4-12.59,24.87c-1.33,3.06,0.06,6.63,3.11,7.97
							c3.06,1.34,6.63-0.05,7.97-3.11c3.53-8.07,7.56-16.03,11.98-23.67c0.55-0.95,0.81-1.99,0.81-3.02c0-2.09-1.08-4.12-3.02-5.24
							C243.11,410.64,239.41,411.63,237.73,414.52z"/>
						<path class="st6" d="M455.22,392.24C455.21,392.24,455.21,392.24,455.22,392.24c-5.16,0-10.34,0.27-15.43,0.8
							c-3.32,0.35-5.75,3.3-5.39,6.64c0.35,3.32,3.32,5.74,6.64,5.39c4.67-0.48,9.44-0.73,14.18-0.73c0,0,0,0,0,0V392.24z"/>
						<path class="st6" d="M443.15,289.24c-3.33,0.16-5.97,2.97-5.75,6.33c0.16,3.34,2.99,5.91,6.33,5.75
							c3.79-0.18,7.65-0.27,11.49-0.27c0,0,0,0,0,0v-12.1c0,0,0,0,0,0C451.19,288.96,447.13,289.05,443.15,289.24z"/>
						<path class="st6" d="M419.76,262.74c-0.49-3.3-3.57-5.58-6.87-5.09c-9.14,1.36-18.31,3.18-27.25,5.42
							c-3.24,0.81-5.21,4.09-4.4,7.34c0.81,3.24,4.1,5.21,7.34,4.4c8.56-2.14,17.34-3.89,26.09-5.19c3-0.45,5.16-3.03,5.16-5.97
							C419.83,263.34,419.81,263.04,419.76,262.74z"/>
						<path class="st6" d="M421.52,333.19c0-0.38-0.04-0.76-0.11-1.14c-0.63-3.28-3.79-5.43-7.08-4.81
							c-9.14,1.75-18.25,4.11-27.08,7.02c-3.17,1.05-4.89,4.47-3.85,7.64c1.05,3.17,4.47,4.9,7.64,3.85
							c8.33-2.75,16.93-4.98,25.56-6.63C419.51,338.57,421.52,336.03,421.52,333.19z"/>
						<path class="st6" d="M440.95,358.36c-3.33,0.26-5.81,3.18-5.56,6.5c0.26,3.33,3.17,5.82,6.5,5.56
							c4.41-0.34,8.89-0.52,13.33-0.52c0,0,0,0,0,0v-12.1c0,0,0,0,0,0C450.46,357.81,445.66,358,440.95,358.36z"/>
						<path class="st6" d="M436.42,330.17c0.2,3.33,3.06,5.88,6.4,5.68c4.11-0.25,8.29-0.37,12.4-0.37c0,0,0,0,0,0v-12.1
							c-4.35,0-8.77,0.13-13.12,0.39C438.76,323.97,436.22,326.8,436.42,330.17z"/>
						<path class="st6" d="M244.48,347.43c-2.25,2.47-2.08,6.29,0.38,8.55c2.46,2.25,6.29,2.08,8.55-0.38
							c5.97-6.53,12.33-12.84,18.89-18.75c1.33-1.19,2-2.84,2-4.49c0-1.44-0.51-2.89-1.56-4.05c-2.24-2.48-6.06-2.68-8.54-0.45
							C257.35,334.02,250.71,340.61,244.48,347.43z"/>
						<path class="st6" d="M378.18,522.84c-1.24,5.59-1.79,11.38-1.79,17.16h12.08c0-4.9,0.46-9.8,1.52-14.54
							c0.1-0.44,0.14-0.88,0.14-1.32c0-2.77-1.92-5.27-4.74-5.9C382.13,517.52,378.9,519.58,378.18,522.84z"/>
						<path class="st6" d="M343.23,522.49c-0.89,5.75-1.28,11.64-1.29,17.51h12.09c0-5.25,0.35-10.52,1.15-15.65
							c0.05-0.31,0.07-0.63,0.07-0.93c0-2.93-2.14-5.51-5.12-5.97C346.83,516.93,343.74,519.19,343.23,522.49z"/>
						<path class="st6" d="M308.54,521.99c-0.72,5.93-1.04,11.98-1.04,18.01h12.09c0-5.54,0.29-11.11,0.96-16.55
							c0.03-0.25,0.04-0.49,0.04-0.74c0-3.02-2.25-5.62-5.32-6C311.96,516.31,308.94,518.67,308.54,521.99z"/>
						<path class="st6" d="M425.83,525.1c0-2.36-1.39-4.6-3.7-5.58c-3.08-1.3-6.63,0.15-7.92,3.23c-2.3,5.46-3.41,11.35-3.41,17.25
							h12.08c0-4.29,0.81-8.59,2.48-12.55C425.68,526.68,425.83,525.89,425.83,525.1z"/>
						<path class="st6" d="M362.29,499.75c3.4-7.84,7.81-15.25,13.09-22.02c0.86-1.11,1.28-2.42,1.28-3.72c0-1.8-0.8-3.58-2.33-4.77
							c-2.63-2.06-6.43-1.59-8.49,1.04c-5.91,7.57-10.84,15.86-14.65,24.65c-1.33,3.07,0.08,6.63,3.14,7.96
							C357.4,504.22,360.96,502.81,362.29,499.75z"/>
						<path class="st6" d="M391.39,504.31c2.77,1.87,6.53,1.14,8.4-1.63c4.69-6.94,10.56-12.88,17.45-17.66
							c1.7-1.18,2.6-3.06,2.6-4.98c0-1.19-0.35-2.39-1.08-3.44c-1.9-2.75-5.67-3.43-8.42-1.53c-8.13,5.63-15.06,12.64-20.59,20.84
							C387.89,498.68,388.62,502.44,391.39,504.31z"/>
						<path class="st6" d="M204.94,520.18c-0.51,6.55-0.76,13.21-0.76,19.82h12.1c0-6.3,0.23-12.64,0.72-18.87
							c0.01-0.16,0.02-0.32,0.02-0.48c0-3.13-2.41-5.78-5.58-6.02C208.11,514.36,205.2,516.85,204.94,520.18z"/>
						<path class="st6" d="M273.96,521.42c-0.62,6.13-0.9,12.37-0.9,18.58h12.09c0-5.81,0.26-11.63,0.84-17.36
							c0.02-0.21,0.03-0.41,0.03-0.62c0-3.07-2.32-5.7-5.44-6.01C277.27,515.68,274.3,518.1,273.96,521.42z"/>
						<path class="st6" d="M170.23,523.23c-0.32,5.55-0.43,11.17-0.43,16.77h12.1c0-5.37,0.1-10.75,0.41-16.07
							c0.01-0.12,0.01-0.24,0.01-0.36c0-3.18-2.48-5.85-5.7-6.03C173.28,517.35,170.42,519.9,170.23,523.23z"/>
						<path class="st6" d="M239.44,520.81c-0.56,6.35-0.81,12.79-0.81,19.19h12.09c0-6.05,0.24-12.14,0.77-18.14
							c0.02-0.18,0.02-0.36,0.02-0.54c0-3.1-2.37-5.74-5.52-6.02C242.66,515.02,239.73,517.48,239.44,520.81z"/>
						<path class="st6" d="M311.6,448.83c4.69-7.37,9.99-14.43,15.76-21c1.01-1.15,1.5-2.57,1.5-3.99c0-1.68-0.7-3.35-2.06-4.55
							c-2.51-2.2-6.33-1.96-8.54,0.55c-6.18,7.04-11.86,14.61-16.88,22.49c-1.8,2.82-0.96,6.56,1.86,8.35
							C306.07,452.48,309.8,451.64,311.6,448.83z"/>
						<path class="st2" d="M385.09,458.58c2.04,2.65,5.83,3.14,8.48,1.11c6.8-5.23,14.24-9.57,22.1-12.92
							c2.3-0.98,3.69-3.22,3.69-5.57c0-0.79-0.16-1.59-0.48-2.36c-1.31-3.08-4.86-4.51-7.93-3.2c-8.81,3.74-17.14,8.61-24.75,14.46
							C383.55,452.13,383.05,455.93,385.09,458.58z"/>
						<path class="st6" d="M455.22,426.66C455.21,426.66,455.21,426.66,455.22,426.66c-5.59,0-11.19,0.41-16.67,1.22
							c-3.3,0.49-5.59,3.56-5.1,6.87c0.49,3.3,3.56,5.59,6.87,5.1c4.89-0.72,9.91-1.09,14.9-1.09c0,0,0,0,0,0V426.66z"/>
						<path class="st6" d="M351.29,452.79c5.58-6.64,11.82-12.78,18.56-18.24c1.48-1.2,2.24-2.94,2.24-4.7
							c0-1.34-0.44-2.69-1.35-3.81c-2.1-2.6-5.91-2.99-8.51-0.89c-7.33,5.95-14.13,12.63-20.2,19.85c-2.15,2.56-1.82,6.37,0.74,8.52
							C345.33,455.68,349.14,455.35,351.29,452.79z"/>
						<path class="st6" d="M437.13,463.17c-3.25,0.76-5.27,4.03-4.51,7.27c0.76,3.25,4.02,5.27,7.27,4.51
							c4.99-1.17,10.15-1.76,15.32-1.76c0,0,0,0,0,0v-12.1C449.11,461.09,443.03,461.79,437.13,463.17z"/>
						<path class="st6" d="M197.89,416.26c-4.01,8.32-7.65,16.93-10.82,25.6c-1.15,3.13,0.46,6.61,3.6,7.76
							c3.14,1.15,6.61-0.46,7.76-3.6c3.04-8.3,6.53-16.55,10.36-24.51c0.41-0.85,0.6-1.74,0.6-2.62c0-2.25-1.26-4.41-3.42-5.45
							C202.95,411.98,199.34,413.25,197.89,416.26z"/>
						<path class="st6" d="M215.41,465.52c-2.74,8.84-5.02,17.94-6.76,27.04c-0.64,3.28,1.52,6.45,4.8,7.08
							c3.28,0.63,6.45-1.52,7.08-4.8c1.66-8.66,3.82-17.31,6.43-25.73c0.18-0.6,0.27-1.2,0.27-1.79c0-2.58-1.66-4.97-4.26-5.78
							C219.78,460.55,216.4,462.33,215.41,465.52z"/>
						<path class="st6" d="M178.8,468.39c-2.31,8.94-4.2,18.09-5.62,27.21c-0.51,3.3,1.74,6.39,5.04,6.91
							c3.3,0.52,6.39-1.74,6.91-5.04c1.36-8.73,3.18-17.5,5.39-26.06c0.13-0.51,0.19-1.02,0.19-1.52c0-2.69-1.81-5.15-4.54-5.85
							C182.94,463.21,179.64,465.16,178.8,468.39z"/>
						<path class="st6" d="M290.65,496.81c2.21-8.45,5.11-16.8,8.61-24.81c0.34-0.79,0.51-1.61,0.51-2.42
							c0-2.33-1.36-4.55-3.63-5.55c-3.06-1.34-6.63,0.06-7.96,3.12c-3.75,8.59-6.85,17.53-9.22,26.59
							c-0.85,3.23,1.09,6.54,4.32,7.38C286.5,501.98,289.81,500.05,290.65,496.81z"/>
						<path class="st2" d="M326.15,498.06c2.67-8.23,6.17-16.26,10.38-23.84c0.52-0.93,0.76-1.94,0.76-2.93
							c0-2.13-1.12-4.19-3.11-5.29c-2.92-1.62-6.6-0.57-8.23,2.35c-4.59,8.26-8.4,17.01-11.31,25.98c-1.03,3.17,0.71,6.59,3.89,7.62
							C321.71,502.98,325.12,501.24,326.15,498.06z"/>
						<path class="st6" d="M255.49,495.76c1.89-8.59,4.37-17.13,7.36-25.38c0.25-0.68,0.36-1.37,0.36-2.06
							c0-2.47-1.53-4.8-3.99-5.69c-3.14-1.14-6.61,0.49-7.75,3.63c-3.17,8.75-5.79,17.79-7.8,26.89c-0.71,3.27,1.34,6.49,4.6,7.21
							C251.55,501.09,254.77,499.02,255.49,495.76z"/>
					</g>
				</g>
			</g>
		</g>
		<path class="st2" d="M451.44,230.69c-40.37,0-73.22-32.85-73.22-73.22c0-40.37,32.85-73.22,73.22-73.22
			c40.37,0,73.22,32.85,73.22,73.22C524.65,197.85,491.81,230.69,451.44,230.69z M451.44,125.55c-17.6,0-31.92,14.32-31.92,31.92
			c0,17.6,14.32,31.92,31.92,31.92c17.6,0,31.92-14.32,31.92-31.92C483.36,139.87,469.04,125.55,451.44,125.55z"/>
		<g>
			<g>
				<g>
					<g>
						<path class="st0" d="M125.43,389.64c15.8-0.01,28.63,12.92,28.4,28.65c-0.06,4.3-1.61,8.24-3.3,12.11
							c-4.04,9.27-9.42,17.78-15.02,26.16c-3.01,4.5-6.17,8.9-9.4,13.25c-0.49,0.66-0.76,0.86-1.36,0.05
							c-8.08-10.91-15.76-22.07-21.98-34.18c-2.39-4.64-4.67-9.38-5.48-14.58c-1.11-7.12,0.81-13.62,4.91-19.46
							C107.56,393.99,116.09,389.64,125.43,389.64z"/>
					</g>
				</g>
			</g>
			<circle class="st5" cx="125.4" cy="416.53" r="13.73"/>
		</g>
	</g>
</g>
</svg>
