<?xml version="1.0" encoding="utf-8"?>
<!-- Generator: Adobe Illustrator 24.0.2, SVG Export Plug-In . SVG Version: 6.00 Build 0)  -->
<svg version="1.1" id="Capa_1" xmlns="http://www.w3.org/2000/svg" xmlns:xlink="http://www.w3.org/1999/xlink" x="0px" y="0px"
	 viewBox="0 0 540 445" style="enable-background:new 0 0 540 445;" xml:space="preserve">
<style type="text/css">
	.st0{fill:#D2C4F3;}
	.st1{fill:#FFFFFF;}
	.st2{fill:#FD3468;}
	.st3{fill:#BBB1DE;}
	.st4{clip-path:url(#SVGID_2_);}
	.st5{fill:#D73468;}
	.st6{fill:#CCBEED;}
	.st7{clip-path:url(#SVGID_4_);}
	.st8{clip-path:url(#SVGID_4_);fill:#CCBEED;}
</style>
<g>
	<circle class="st2" cx="270" cy="222.5" r="200.28"/>
	<g>
		<path class="st3" d="M255.57,315.85c-4.94,0.06-9.34-1.48-13.19-4.5c-21.46-16.81-43-33.52-64.31-50.53
			c-8.08-6.45-10.52-15.36-8.27-25.3c2.24-9.88,8.38-16.24,18.51-18.14c6.12-1.15,11.71,0.56,16.59,4.38
			c13.1,10.23,26.17,20.51,39.26,30.77c1.62,1.27,3.36,2.41,4.83,3.83c1.39,1.33,1.93,0.71,2.77-0.55
			c17.98-26.79,35.99-53.55,54-80.32c8.03-11.94,16.08-23.86,24.11-35.8c5.55-8.25,14.22-11.98,23.33-10.01
			c8.45,1.83,15.57,9.53,17.27,18.58c1.39,7.4-0.06,14.14-4.27,20.39c-30.56,45.36-61.1,90.73-91.6,136.13
			C270.02,311.59,263.99,315.71,255.57,315.85z"/>
	</g>
</g>
</svg>
