<?xml version="1.0" encoding="utf-8"?>
<!-- Generator: Adobe Illustrator 24.0.2, SVG Export Plug-In . SVG Version: 6.00 Build 0)  -->
<svg version="1.1" id="Capa_1" xmlns="http://www.w3.org/2000/svg" xmlns:xlink="http://www.w3.org/1999/xlink" x="0px" y="0px"
	 viewBox="0 0 1080 1080" style="enable-background:new 0 0 1080 1080;" xml:space="preserve">
<style type="text/css">
	.st0{opacity:0.8;fill:#CCC2F0;}
	.st1{fill:#CCC2F0;}
	.st2{fill:#FFFFFF;}
</style>
<g>
	<path class="st0" d="M539.87,19.05c51.62-0.91,100.99,9.76,147.91,30.66c74.88,33.35,132.7,85.98,172.9,157.37
		c22.07,39.19,36,81.17,42.41,125.88c10.89,76.03-0.42,148.41-35.26,216.61c-21.55,42.18-48.24,81.5-72.81,121.99
		c-73.55,121.21-147.3,242.32-220.78,363.57c-6.33,10.45-13.22,19.95-24.18,25.87c-3.4,0-6.8,0-10.2,0
		c-3.5-3.91-3.29-8.77-3.29-13.5c-0.06-155.33-0.06-310.66-0.01-465.99c0-3.39,0.04-6.79,0.95-10.08c1.8-5.88,7.12-5.77,11.66-6.27
		c19.64-2.16,39.15-4.92,57.47-12.77c65.48-28.08,103.26-77.22,112.08-147.99c6.02-48.28-7.3-91.62-36.94-129.48
		c-31.34-40.04-72.74-63.3-123.89-68.65c-6.96-0.73-15.35,0.89-20.17-6.91c-1.06-3.28-1.12-6.67-1.12-10.04
		c-0.07-52.3-0.07-104.61,0.02-156.91C536.62,27.77,536.13,22.86,539.87,19.05z"/>
	<path class="st1" d="M539.87,568.66c0,164.11-0.01,328.22-0.01,492.34c-2.72,0-5.44,0-8.16,0c-10.96-5.65-17.36-15.32-23.59-25.51
		c-92.42-151.2-184.76-302.45-277.65-453.37c-37.91-61.6-58.5-127.92-57.5-200.28c1.18-85.61,28.48-162.47,83.11-228.48
		c60.34-72.9,137.9-116.8,232.06-130.62c17.16-2.52,34.41-3.63,51.74-3.7c0,60.85,0,121.7,0,182.55c-6.7,5.24-14.98,3.5-22.45,4.53
		c-82.67,11.37-145.56,74.21-156.71,156.37c-13.2,97.28,57.2,189.35,155.7,201.53C524.21,565,532.82,563.37,539.87,568.66z"/>
</g>
<circle class="st2" cx="540.5" cy="391.5" r="188.5"/>
</svg>
