<?xml version="1.0" encoding="utf-8"?>
<!-- Generator: Adobe Illustrator 24.0.2, SVG Export Plug-In . SVG Version: 6.00 Build 0)  -->
<svg version="1.1" id="Capa_1" xmlns="http://www.w3.org/2000/svg" xmlns:xlink="http://www.w3.org/1999/xlink" x="0px" y="0px"
	 viewBox="0 0 1166 658" style="enable-background:new 0 0 1166 658;" xml:space="preserve">
<style type="text/css">
	.st0{fill:#D2C4F3;}
	.st1{fill:#FD3468;}
</style>
<g>
	<g>
		<path class="st0" d="M165.79,37.83c2.69,0.67,5.48,1.06,8.05,2.05c11.56,4.45,18.5,15.72,17.28,28.02
			c-0.45,4.56-2.49,8.65-4.45,12.7c-6,12.39-13.86,23.63-21.94,34.71c-0.64,0.88-1.12,1.11-1.87,0.08
			c-8.9-12.09-17.35-24.45-23.62-38.15c-3.38-7.4-4.37-14.97-0.85-22.6c4.33-9.39,11.55-15.06,21.93-16.46
			c0.49-0.07,0.97-0.23,1.46-0.35C163.11,37.83,164.45,37.83,165.79,37.83z M163.67,52.06c-7.37,0.02-13.36,6.04-13.35,13.43
			c0.01,7.33,6.07,13.47,13.36,13.52c7.31,0.05,13.55-6.18,13.55-13.52C177.23,58.07,171.14,52.04,163.67,52.06z"/>
	</g>
	<path class="st1" d="M937.09,248.7c0,31.38,0,62.76,0,94.14c0,6.88-1.94,8.84-8.73,8.84c-12.99,0-25.97,0.01-38.96-0.01
		c-4.82-0.01-7.02-2.03-7.59-6.86c-0.69-5.86-6.45-8.19-11.45-4.53c-10.81,7.92-22.78,13.25-35.99,15.25
		c-38.89,5.89-76.88-7.56-100.66-44.86c-9.76-15.31-14.92-32.16-16.42-50.2c-1.65-19.8-0.26-39.29,7.69-57.69
		c13.49-31.2,36.09-52.4,69.84-59.78c27.17-5.94,52.92-2.46,75.76,14.8c2.31,1.75,4.76,2.33,7.41,0.95
		c2.59-1.34,3.73-3.57,3.86-6.48c0.18-4.19,2.49-6.35,6.71-6.35c13.56-0.02,27.11-0.01,40.67-0.01c5.89,0,7.86,1.93,7.86,7.8
		C937.1,185.37,937.09,217.03,937.09,248.7z M832.46,193.95c-24.47,0.2-39.79,8.93-49.91,26.32c-6.94,11.92-8.51,24.92-6.25,38.42
		c5.81,34.71,38.4,52.74,70.84,41.4c22.58-7.9,36.88-33.45,34.38-58.23C879.19,218.79,858.46,193.11,832.46,193.95z"/>
	<path class="st1" d="M605.62,269.26c-20.57,0-41.14,0.04-61.7-0.03c-4.68-0.02-8.35,1.6-10.62,5.74c-2.37,4.32-1.38,8.33,1.36,12.2
		c8.08,11.43,19.38,17.67,32.91,19.79c24.3,3.81,47.26-0.7,68.9-12.2c7.81-4.15,12.71-2.76,17.2,4.98
		c3.79,6.55,7.62,13.09,11.39,19.66c3.37,5.88,2.02,11.59-3.66,15.24c-17.32,11.12-36.27,17.76-56.62,20.56
		c-14.81,2.04-29.61,2.15-44.48,0.56c-53.82-5.77-82.39-42.34-90.23-81.37c-4.96-24.67-3.86-49.21,6.94-72.28
		c15.27-32.63,40.64-52.93,76.55-58.93c21.72-3.63,43.35-2.91,64.04,5.2c33.19,13.01,53.83,36.9,60.41,72.31
		c2.4,12.94,2.71,25.96,1.18,39.02c-0.7,6-4.73,9.53-11,9.54C647.33,269.28,626.48,269.26,605.62,269.26z M575.23,227.38
		c10.71,0,21.42-0.03,32.13,0.02c4.48,0.02,7.89-1.76,10.09-5.65c2.18-3.85,1.64-7.58-0.68-11.24
		c-8.74-13.78-21.43-20.81-37.53-21.59c-18.7-0.9-34.08,5.61-45.19,21.13c-2.59,3.62-3.28,7.45-1.15,11.45
		c2.14,4.03,5.61,5.93,10.22,5.9C553.81,227.34,564.52,227.38,575.23,227.38z"/>
	<path class="st1" d="M229.83,251.77c0-31.57,0-63.13,0-94.7c0-5.94,2.08-8.03,7.98-8.03c13.74,0,27.49,0,41.23,0
		c5.41,0,7.71,2.11,7.82,7.42c0.07,3.5,1.07,6.37,4.48,7.85c3.38,1.47,5.93-0.09,8.45-2.28c12.56-10.93,27.31-16.72,43.8-18.24
		c21.27-1.97,40.8,2.63,58.11,15.54c16.54,12.34,25.6,29.13,28.69,49.21c1.19,7.73,1.67,15.64,1.71,23.47
		c0.17,38.01,0.08,76.02,0.08,114.03c0,6.46-2.25,8.73-8.67,8.73c-14.12,0-28.25,0.01-42.37,0c-5.25,0-7.81-2.58-7.81-7.87
		c-0.01-34.41-0.01-68.82,0-103.23c0-8.82-1.34-17.38-5.22-25.36c-6.7-13.78-18.12-20.67-33.15-21.05
		c-26.05-0.66-44.12,16.12-46.13,42.27c-0.26,3.39-0.42,6.81-0.42,10.21c-0.03,32.13-0.02,64.27-0.02,96.4
		c0,6.57-2.07,8.62-8.68,8.62c-14.03,0-28.06,0.01-42.08,0c-5.5,0-7.78-2.26-7.78-7.73C229.83,315.28,229.83,283.52,229.83,251.77z"
		/>
	<g>
		<g>
			<path class="st1" d="M541,480.51c-1.14-7.56-7.75-13.65-15.28-14.02c-8.19-0.4-15.26,4.74-17.19,12.46
				c-0.7,2.81-0.4,5.67-0.52,8.51c-0.04,0.95,0.31,1.12,1.17,1.12c5.14-0.04,10.28-0.02,15.42-0.02c0.86,0,1.73,0,2.59,0
				c4.32,0,8.64,0,12.96,0c0.56,0,1.12,0.11,1.08-0.8C541.11,485.34,541.36,482.92,541,480.51z"/>
			<path class="st1" d="M639.92,488.04c-4.24-32.53-20.74-57.77-47.22-76.56c-20.36-14.44-43.63-19.55-68.28-20.3
				c-8.35,0.94-16.8,1.36-25.04,2.91c-38.03,7.13-65.09,28.8-81.26,63.63c-10.81,23.3-12.4,48.14-7.05,73
				c8.57,39.85,32.39,67.27,70.67,81.39c21.35,7.88,43.6,8.52,65.94,4.96c28.64-4.57,52.11-18.17,69.97-41.09
				C637.93,549.97,644.11,520.23,639.92,488.04z M577.18,554.61c-0.01,5.56-3.24,9.8-8.36,11.06c-1.14,0.28-2.3,0.34-3.47,0.34
				c-13.61,0-27.22,0-40.83,0c-13.65,0-27.31,0.01-40.96,0c-5.63-0.01-9.94-3.25-11.18-8.38c-0.25-1.05-0.32-2.13-0.32-3.21
				c0-18.1-0.01-36.21,0.01-54.31c0-6.95,4.6-11.53,11.54-11.54c2.33,0,2.39-0.01,2.32-2.41c-0.21-6.65,0.69-13.07,3.46-19.19
				c6.61-14.58,21.9-23.7,37.87-22.53c18.29,1.35,32.84,14.75,35.67,32.87c0.48,3.09,0.39,6.2,0.39,9.31c0,1.94,0,1.96,1.89,1.94
				c1.34-0.01,2.67,0.04,3.98,0.4c4.87,1.34,7.98,5.56,7.99,10.96c0.02,9.25,0.01,18.49,0.01,27.74
				C577.19,536.64,577.21,545.62,577.18,554.61z"/>
		</g>
		<path class="st1" d="M1126.97,505.52c0,33.36,0,66.71,0,100.07c0,5.86-2.26,8.12-8.12,8.13c-13.98,0.01-27.96,0.01-41.94,0
			c-5.27,0-7.29-1.8-8.05-7.09c-0.89-6.21-6.67-8.77-11.76-5.04c-20.09,14.71-42.64,19.2-67.09,17.1
			c-47.87-4.11-82.44-41.11-91.7-83.19c-5.71-25.95-5.42-51.89,4.69-76.76c14.45-35.56,40.17-58.66,78.48-65.64
			c27.16-4.95,52.86-0.79,75.46,16.41c2.29,1.74,4.74,2.53,7.53,1.22c2.93-1.37,4.21-3.76,4.44-6.9c0.34-4.68,2.59-6.87,7.24-6.89
			c14.48-0.04,28.96-0.04,43.44,0c5.11,0.01,7.38,2.41,7.38,7.61C1126.97,438.21,1126.97,471.87,1126.97,505.52z M1012.47,447.69
			c-19.57,0.07-35.16,7.94-46.1,24.23c-9.18,13.67-11.5,28.92-8.52,44.94c6.86,36.92,41.77,54.46,74.84,42.43
			c24.3-8.83,39.62-36.68,35.57-63.09C1063.92,467.81,1040.81,447.73,1012.47,447.69z"/>
		<path class="st1" d="M771.63,390.16c28.73,0.14,53.26,7.16,74.25,24.59c4.6,3.82,5.03,6.94,1.54,11.81
			c-6.45,9-12.91,18.01-19.36,27.01c-3.38,4.71-6.6,5.23-11.4,1.85c-13.63-9.61-28.53-15.44-45.44-15.19
			c-4.94,0.07-9.7,1.07-14.05,3.58c-8.65,5-9.99,15.25-2.85,22.24c4.09,4.01,9.28,6.08,14.55,8.01
			c15.24,5.57,30.62,10.8,45.62,16.96c12.48,5.13,23.5,12.73,31.84,23.67c8.28,10.86,11.73,23.25,11.08,36.74
			c-1.5,31.36-19.65,50.34-47.15,61.68c-17.22,7.1-35.49,7.85-53.86,6.52c-16.49-1.19-32.2-5.28-46.93-12.89
			c-10.73-5.55-20.23-12.76-28.72-21.33c-3.43-3.46-3.6-6.69-0.62-10.64c6.9-9.17,13.83-18.32,20.75-27.48
			c3.68-4.88,7.25-5.25,11.83-1.22c11.97,10.56,25.45,18.17,41.29,21.1c8.89,1.64,17.84,2.4,26.65-0.35
			c2.81-0.88,5.63-2.16,8.04-3.84c8.38-5.85,8.97-16.59,0.91-22.84c-4.1-3.18-8.96-5.62-13.82-7.52
			c-14.46-5.66-29.2-10.65-43.64-16.37c-12.12-4.8-22.84-11.84-31-22.27c-10.08-12.88-13.39-27.72-11.72-43.65
			c3.16-30.12,22.31-46.34,49.28-55.31C749.95,391.28,761.7,390.4,771.63,390.16z"/>
		<path class="st1" d="M230.49,508.18c0-33.95,0-67.9,0-101.85c0-1-0.07-2.01,0.04-2.99c0.45-4.16,2.96-6.44,7.15-6.45
			c14.78-0.02,29.56-0.01,44.33-0.01c5.28,0,7.42,2.07,7.62,7.34c0.02,0.5-0.01,1.01,0.06,1.49c0.46,2.97,1.86,5.17,4.82,6.28
			c3.11,1.17,5.45-0.08,7.5-2.21c7.94-8.25,17.39-14,28.48-16.84c13.25-3.39,26.47-2.96,39.56,1.02c3.49,1.06,5.36,3.45,5.13,7.13
			c-0.52,8.16-1.25,16.31-1.93,24.46c-0.53,6.46-1.1,12.92-1.66,19.37c-0.11,1.29-0.25,2.58-0.46,3.86
			c-0.73,4.29-3.92,6.5-8.23,5.51c-10.7-2.45-21.45-3.59-32.29-1.08c-18.07,4.18-28.43,16.28-33.86,33.32
			c-2.9,9.09-4.16,18.48-4.18,28c-0.07,32.05-0.02,64.11-0.03,96.16c0,6.96-1.99,8.97-8.84,8.97c-14.78,0-29.56,0.01-44.33,0
			c-6.72,0-8.86-2.19-8.87-9.03C230.49,576.48,230.49,542.33,230.49,508.18z"/>
	</g>
	<path class="st1" d="M97.73,212.08c0,42.08,0,84.17,0,126.25c0,9.9-6.45,16.41-16.29,16.43c-8.72,0.01-17.44,0.01-26.16,0
		c-9.41-0.02-15.92-6.33-16.22-15.7c-0.02-0.57-0.01-1.14-0.01-1.71c0-83.69,0.01-167.39-0.02-251.08c0-4.29,0.67-8.3,3.51-11.7
		c3.09-3.7,7.04-5.7,11.88-5.73c9.29-0.05,18.58-0.06,27.86,0c8.7,0.05,15.44,6.86,15.44,15.57
		C97.74,126.96,97.73,169.52,97.73,212.08z"/>
	<path class="st1" d="M134.4,248.47c0-29.66,0-59.32,0-88.99c0-10.43,6.57-16.99,17.04-17c8.43-0.01,16.87-0.03,25.3,0.01
		c9.64,0.05,16.49,6.78,16.49,16.45c0.04,59.8,0.04,119.6,0,179.39c-0.01,9.66-6.92,16.41-16.52,16.42
		c-8.72,0.01-17.44,0.02-26.15,0c-9.27-0.02-16.14-6.86-16.15-16.16C134.38,308.55,134.4,278.51,134.4,248.47z"/>
</g>
</svg>
