<?xml version="1.0" encoding="utf-8"?>
<!-- Generator: Adobe Illustrator 24.0.2, SVG Export Plug-In . SVG Version: 6.00 Build 0)  -->
<svg version="1.1" id="Capa_1" xmlns="http://www.w3.org/2000/svg" xmlns:xlink="http://www.w3.org/1999/xlink" x="0px" y="0px"
	 viewBox="0 0 1080 1080" style="enable-background:new 0 0 1080 1080;" xml:space="preserve">
<style type="text/css">
	.st0{fill:#2D164A;}
	.st1{fill:#FD3468;}
</style>
<g>
	<g>
		<path class="st0" d="M566.05,29.04c8.82,1.34,17.62,2.76,26.45,4c85.2,11.89,158.27,48.7,218.89,109.2
			c51.2,51.11,84.84,112.6,101.67,183.17c16.89,70.83,11.29,140.38-10.56,209.26c-21.64,68.22-53.99,131.37-91.33,191.99
			c-69.14,112.26-151.79,214.02-243.02,308.97c-19.62,20.42-36.51,20.46-56.08-0.01c-103.74-108.47-197.28-224.8-270.54-356.34
			c-36.65-65.8-66.59-134.39-79.41-209.42c-9.35-54.74-5.54-108.68,9.67-161.76c23.04-80.41,67.66-146.61,133.69-198.07
			c59.74-46.56,127.6-72.71,202.99-79.45c1.93-0.17,3.79-1.01,5.69-1.53C531.46,29.04,548.76,29.04,566.05,29.04z M731.64,412.01
			c-0.12-105.43-86.63-191.7-191.92-191.38c-105.13,0.32-190.84,86.05-191.13,191.17c-0.29,105.3,85.99,191.79,191.42,191.88
			C645.37,603.77,731.76,517.36,731.64,412.01z"/>
	</g>
	<g>
		<g>
			<g>
				<path class="st1" d="M612.93,319.53c3.2,1.34,4.37,3.74,4.36,7.19c-0.04,11.97,0.12,23.95,0.2,35.92
					c0.03,4.99-2.14,7.15-7.17,7.17c-12.27,0.05-24.54,0.11-36.82,0.15c-4.4,0.01-6.96-3.11-5.98-7.23c0.64-2.69,2.69-4.2,5.85-4.22
					c7.86-0.04,15.73-0.06,23.59-0.08c0.93,0,1.86,0,3.29,0c-0.94-1.05-1.54-1.75-2.18-2.41c-13.41-13.85-29.64-22.16-48.82-24.39
					c-41.5-4.84-79.64,22.91-87.78,63.8c-0.99,4.97-1.5,10.01-1.54,15.08c-0.02,3.47-1.47,5.52-4.27,6.16
					c-3,0.68-5.43-0.6-6.91-3.63c-0.05-0.09-0.17-0.15-0.26-0.22c0-2.38,0-4.77,0-7.15c0.1-0.52,0.26-1.03,0.29-1.55
					c0.28-4.28,0.95-8.5,1.85-12.69c7.83-36.17,37.58-64.51,73.96-70.54c3.58-0.59,7.2-0.73,10.76-1.37c3.1,0,6.2,0,9.29,0
					c0.47,0.35,1.02,0.27,1.55,0.31c20.11,1.46,37.86,8.72,53.26,21.72c2.11,1.78,4.1,3.71,6.43,5.83c0-0.97,0-1.6,0-2.24
					c-0.03-6.01,0.07-12.03-0.13-18.04c-0.12-3.55,1.02-6.11,4.31-7.59C611.02,319.53,611.97,319.53,612.93,319.53z"/>
				<path class="st1" d="M474.2,474.96c0,6.03,0,11.92,0,17.81c0,1.31,0.04,2.62,0,3.93c-0.1,3.35-2.58,5.86-5.74,5.85
					c-3.16-0.01-5.64-2.53-5.67-5.89c-0.07-6.43-0.07-12.87-0.11-19.3c-0.04-6.13-0.12-12.27-0.15-18.4
					c-0.02-4.32,2.28-6.66,6.58-6.68c12.51-0.07,25.02-0.12,37.52-0.16c3.66-0.01,5.99,2.15,6.08,5.57c0.09,3.45-2.3,5.84-6,5.87
					c-7.74,0.06-15.49,0.06-23.23,0.08c-1.06,0-2.12,0-3.35,0c0.28,0.97,0.9,1.45,1.41,1.98c16.69,17.3,37.06,26.07,61.09,25.33
					c37.37-1.15,68.34-27.56,75.88-64.21c1.07-5.2,1.53-10.48,1.59-15.79c0.04-4.11,3.58-6.61,7.52-5.41
					c2.56,0.78,3.91,2.71,3.9,5.71c-0.05,11-1.8,21.74-5.89,31.94c-12.41,30.89-34.84,50.64-67.43,57.31
					c-31.52,6.46-59.21-2.39-82.61-24.52C475.2,475.62,474.95,475.11,474.2,474.96z"/>
			</g>
		</g>
	</g>
</g>
</svg>
