<svg id="Capa_1" data-name="Capa 1" xmlns="http://www.w3.org/2000/svg" viewBox="0 0 894 686"><defs><style>.cls-1{fill:#fd3468;}.cls-2{fill:#cac0ee;}</style></defs><title>Sin título-1</title><path class="cls-1" d="M447.24,13.17c129-.06,233.93,105.52,232,234-.53,35.11-13.16,67.33-27,99-33,75.73-76.94,145.28-122.74,213.69-24.63,36.78-50.42,72.74-76.84,108.25-4,5.36-6.23,7-11.11.44C375.63,579.4,312.86,488.19,262,389.33c-19.51-37.95-38.18-76.63-44.79-119.15-9.05-58.2,6.65-111.28,40.11-159C301.23,48.71,371,13.21,447.24,13.17Z"/><path class="cls-2" d="M558.23,218.33c.27,14.92-4.86,28.33-11.76,41.19-11.23,21-26.28,39.08-42.42,56.34A593.55,593.55,0,0,1,451.61,365c-3.33,2.8-5.46,3.21-9,.22-32.21-27.2-62.76-56-86.45-91.19-10-14.9-18.59-30.64-20.14-49-3.56-42.2,31.53-69.21,71.55-55.16,15,5.27,27,14.72,36.2,27.5,3,4.14,4,3.16,6.5-.2,11.84-15.78,27-26.71,46.8-30C531.09,161.33,557,183.22,558.23,218.33Z"/></svg>